<svg width="683" height="683" viewBox="0 0 683 683" fill="none" xmlns="http://www.w3.org/2000/svg">
<g clip-path="url(#clip0_95_32)">
<path d="M88.6664 1.86666C75.7331 6 67.1998 13.3333 61.4664 25.3333L57.9998 32.6667L57.3331 114L56.6664 195.333L49.1998 210C33.5998 240.533 24.2664 269.867 17.8664 308.667C14.3998 329.467 14.3998 381.067 17.7331 402.533C31.7331 491.067 77.1998 566.8 147.466 618.667C262.266 703.6 420.4 703.6 535.2 618.667C605.466 566.8 650.933 491.067 664.933 402.533C668.266 381.067 668.266 329.467 664.8 308.667C658.4 269.867 649.066 240.533 633.466 210L626 195.333L625.333 114L624.666 32.6667L621.2 25.3333C616.666 15.8667 609.333 8.53333 600.133 4.13333L592.666 0.666664L343.333 0.399997C144.8 0.266664 92.9331 0.53333 88.6664 1.86666ZM592 24.2667C603.066 29.8667 603.333 31.0667 603.733 75.6L604.133 114.533L533.333 114.933L462.4 115.333L459.2 119.067C455.333 123.6 455.066 128 458.533 132.133L461.066 135.333L532.266 136L603.333 136.667L603.733 324.267L604 511.867L594.8 525.6C546.533 597.6 472 644.267 383.333 658.133C363.2 661.2 319.466 661.2 299.333 658.133C210.666 644.267 136.133 597.6 87.8664 525.6L78.6664 511.867L78.9331 324.267L79.3331 136.667L249.333 136C342.8 135.6 420 134.933 420.8 134.4C421.6 133.867 423.066 131.6 424 129.467C426 124.533 423.733 118.933 418.666 116.4C416 115.067 380 114.667 246.933 114.667H78.5331L78.9331 75.6C79.3331 31.0667 79.5998 29.8667 90.6664 24.2667L96.5331 21.3333H341.333H586.133L592 24.2667ZM57.0664 411.733L56.6664 467.333L51.5998 452C40.5331 417.733 36.6664 393.067 36.6664 355.333C36.7998 317.2 41.0664 290.667 52.3998 257.333L56.6664 244.667L57.0664 300.4C57.1998 330.933 57.1998 381.067 57.0664 411.733ZM629.866 255.867C646.666 302.8 650.933 362 641.2 412.933C638.4 427.733 632.266 450.133 628.133 460.667L625.466 467.333L625.333 356.133C625.333 294.933 625.6 245.2 625.866 245.467C626.133 245.733 628 250.4 629.866 255.867Z" fill="white"/>
<path d="M114 42.5333C93.8666 51.8667 91.4666 79.2 109.6 91.4667C117.467 96.8 125.2 98 134.133 95.3333C145.733 91.8667 154.667 79.7333 154.667 67.3333C154.667 62.2667 149.333 50.9333 145.2 47.0667C137.467 40 123.867 38 114 42.5333Z" fill="white"/>
<path d="M201.6 41.3332C183.333 48.7999 177.867 73.0665 191.2 87.7332C198.933 96.3999 214.267 99.0665 224.667 93.7332C238 86.7999 244 70.7999 238.267 57.1999C235.867 51.3332 228.667 44.1332 223.067 41.8665C218.267 39.7332 206.267 39.5999 201.6 41.3332Z" fill="white"/>
<path d="M286.666 42.1332C280 45.0666 276.133 49.0666 272.533 56.6666C267.2 67.8666 268.933 77.9999 277.6 87.4666C294.133 105.467 323.733 95.5999 326.266 71.3332C328 54.1332 315.2 39.9999 298 40.1332C294.4 40.1332 289.2 41.0666 286.666 42.1332Z" fill="white"/>
<path d="M205.2 232.8C161.867 276.133 158.667 279.6 158.667 283.867C158.667 288.267 161.867 291.733 204.133 334.133C230.667 360.667 250.933 380 252.8 380.4C256.667 381.067 263.333 378.267 264.533 375.334C264.933 374.134 265.333 371.2 265.333 368.934C265.333 365.334 260.533 360 224.667 324L184 283.333L224.667 242.667C260.8 206.533 265.333 201.6 265.333 197.867C265.333 192.4 261.733 188.267 256.267 187.2C251.867 186.267 251.067 187.067 205.2 232.8Z" fill="white"/>
<path d="M378.267 189.6C375.6 191.867 365.333 215.2 339.2 278C319.6 324.933 303.2 364.8 302.667 366.667C299.333 378.667 316.267 385.867 321.867 374.8C328 363.2 394.667 200.4 394.667 197.333C394.667 188.667 384.533 183.867 378.267 189.6Z" fill="white"/>
<path d="M423.066 188C419.466 189.467 417.333 193.333 417.333 198.267C417.333 201.467 423.866 208.533 458 242.667L498.666 283.333L458 324C422.133 360 417.333 365.334 417.333 368.934C417.333 371.2 417.733 374.134 418.133 375.334C419.333 378.267 426 381.067 429.866 380.4C431.733 380 452 360.667 478.533 334.133C520.8 291.733 524 288.267 524 283.867C524 279.6 520.8 276.133 477.6 232.933C447.066 202.533 430.4 186.667 428.666 186.8C427.2 186.8 424.666 187.333 423.066 188Z" fill="white"/>
<path d="M150 446.933C143.466 450.4 142.133 457.2 146.8 463.2L149.466 466.667H283.466H417.466L420.666 463.333C425.866 458.267 424.266 449.733 417.733 446.8C413.2 444.8 153.866 444.8 150 446.933Z" fill="white"/>
<path d="M466 446.933C459.2 450.8 458 458.133 463.333 463.333L466.533 466.667H499.867H533.2L535.867 463.2C540.533 457.2 539.333 450.533 533.2 447.333C528.4 444.8 470.267 444.533 466 446.933Z" fill="white"/>
<path d="M162 520.667C157.6 524.933 157.466 531.733 161.733 535.733C164.8 538.533 165.866 538.667 196.933 538.667C214.666 538.667 230.133 538.267 231.333 537.867C233.733 536.933 237.333 530.533 237.333 527.333C237.333 526.133 235.6 523.333 233.466 521.2L229.6 517.333H197.333H165.2L162 520.667Z" fill="white"/>
<path d="M291.333 520.667C286.666 525.2 286.8 532.133 291.466 535.867C295.066 538.667 295.6 538.667 413.6 538.667H532.133L535.333 535.333C540.666 530.133 539.6 522.533 533.2 519.333C530 517.6 512.533 517.333 412 517.333H294.533L291.333 520.667Z" fill="white"/>
</g>
<defs>
<clipPath id="clip0_95_32">
<rect width="682.667" height="682.667" fill="white"/>
</clipPath>
</defs>
</svg>
