<svg width="683" height="683" viewBox="0 0 683 683" fill="none" xmlns="http://www.w3.org/2000/svg">
<g clip-path="url(#clip0_95_2)">
<path d="M257.733 54.6666C196.4 56.2666 112.933 60.5333 77.2 63.9999C50.4 66.5333 34.4 75.3333 22.4 93.9999C15.3334 104.8 12.4 115.733 10 139.333C-0.933317 249.467 -2.79998 369.2 4.80002 478.667C8.13335 527.2 12 563.467 14.6667 572.533C20.8 592.267 36.1334 608 55.8667 614.8C66.9334 618.667 126.133 623.067 218 626.8C267.867 628.933 414.933 628.933 464.667 626.8C526.533 624.267 596.4 620.133 613.867 617.867C639.333 614.667 660.8 596.4 668 572C671.6 560 676.533 507.867 680 446C682.4 403.867 683.067 317.867 681.467 274C678.667 200.4 672.4 124.667 668 110.133C661.867 90.5333 646.533 74.5333 626.933 67.8666C601.333 59.0666 384.667 51.3333 257.733 54.6666ZM417.333 74.6666C496.533 76.6666 603.067 82.3999 615.867 85.4666C634 89.7333 647.2 104.133 650.533 123.333C652.133 132.667 657.867 196 657.067 196.667C656.8 196.933 642.267 196 624.667 194.667C590.133 192 537.333 188.8 489.333 186.533C446 184.533 287.067 183.6 243.067 184.933C200.133 186.4 198.667 186.8 198.667 195.867C198.667 199.2 199.6 201.733 201.333 203.333C203.867 205.6 206.267 205.733 231.067 205.2C285.733 204.133 448.4 204.8 484.667 206.4C549.6 209.333 656.667 216.267 658.267 217.733C661.333 220.8 663.6 354.267 661.467 408.667C659.2 466.267 654.133 537.2 650.533 558.667C647.333 578.267 634.267 592.933 615.867 597.2C601.867 600.533 495.6 606.133 407.067 608.133C305.2 610.533 173.333 606.667 79.2 598.8C54.9334 596.667 40.6667 586.8 34.2667 567.733C31.0667 558.533 26 505.2 22.6667 446C19.3334 386.8 19.7334 260 23.4667 225.2L24.2667 217.6L31.8667 216.8C44 215.467 110.4 210.933 141.333 209.2C157.067 208.4 171.333 207.2 173.067 206.533C179.733 204 180.267 194 173.867 189.867C170.8 187.867 167.867 187.733 140.933 189.2C106.933 190.933 41.0667 195.6 31.4667 196.8L24.9334 197.6L25.8667 187.2C31.4667 123.467 32 118.667 36.4 109.467C43.6 94.1333 57.6 85.7333 79.0667 83.8666C178.933 75.4666 307.2 71.9999 417.333 74.6666Z" fill="white"/>
<path d="M81.8666 95.2C53.2 104.533 44 139.867 64.2666 162C72.6666 171.2 81.4666 175.067 94 175.2C110.8 175.467 123.467 167.6 130.933 152.4C141.333 131.333 133.2 108.267 111.733 97.2C104.667 93.6 89.8666 92.5333 81.8666 95.2ZM106.667 117.333C119.6 126.533 117.733 146.4 103.2 153.333C95.8666 156.933 88.2666 156.133 81.7333 151.2C69.4666 141.867 70.6666 125.333 84 116.267C90 112.133 100.133 112.667 106.667 117.333Z" fill="white"/>
<path d="M177.333 94.5332C165.333 98.3998 155.333 107.333 150.267 118.533C146.4 127.067 146.4 142.267 150.267 150.8C154.267 159.6 161.733 167.333 170.4 171.6C180.267 176.4 194.667 176.667 204.133 172.4C212.533 168.667 220.8 160.8 225.067 152.8C230 143.467 230.267 126.533 225.733 117.333C221.867 109.467 213.2 100.8 205.6 97.1998C199.2 93.9998 183.333 92.5332 177.333 94.5332ZM196.4 115.2C205.467 118.933 210.667 129.067 208.8 139.333C207.6 145.467 200.533 152.667 193.6 154.667C178.667 159.2 163.333 144.267 167.733 129.467C171.733 116.267 184.133 110 196.4 115.2Z" fill="white"/>
<path d="M267.2 96.1333C257.467 99.8667 250.134 106.667 245.2 116.667C241.334 124.667 241.067 126 241.6 136.267C242.267 148.933 244.8 155.067 252.8 163.2C268.4 179.333 295.2 179.467 311.067 163.467C318.934 155.733 321.734 148.933 322.4 136.267C322.934 126 322.667 124.667 318.8 116.667C316.267 111.733 312.267 106.133 309.067 103.333C297.734 93.7333 280.934 90.8 267.2 96.1333ZM292.4 116.4C299.6 120.8 302.667 126 302.667 134.133C302.667 146.4 294 155.333 282 155.333C274 155.333 269.334 152.667 264.4 145.333C260.4 139.6 260.267 129.067 264 123.467C267.6 117.867 275.6 113.333 282 113.333C285.2 113.333 289.334 114.533 292.4 116.4Z" fill="white"/>
<path d="M357.734 252.4C349.467 255.467 342 262 338.267 269.467C333.467 278.8 277.2 523.2 277.067 534.8C276.934 559.333 301.067 576.4 325.6 569.067C332.267 567.067 342 558.533 345.467 551.6C347.067 548.667 360.8 491.867 377.067 421.467C409.334 281.2 409.2 282.4 402 269.467C395.334 257.467 384.134 250.933 370 250.933C365.6 250.933 360.134 251.6 357.734 252.4ZM380.667 274.933C383.867 277.867 385.6 280.933 386.134 284C386.667 287.2 378.4 325.6 358.667 411.333C343.2 478.8 330 536.267 329.2 538.933C327.334 546.267 321.334 550.667 313.067 550.667C307.2 550.667 305.867 550.133 301.867 546.133C297.6 541.867 296.534 538.533 297.334 531.333C297.467 529.867 310.4 472.533 326.134 404L354.667 279.333L359.334 274.933C363.067 271.467 365.067 270.667 370 270.667C374.934 270.667 376.934 271.467 380.667 274.933Z" fill="white"/>
<path d="M208.933 284.533C206.133 285.6 201.6 288 198.933 289.867C196.267 291.733 172.533 314.667 146.4 340.933C93.0668 394.4 92.6668 394.933 92.8001 411.333C92.8001 426.667 94.0001 428.267 150.4 484.267C205.6 539.2 204.933 538.667 221.2 538.667C247.333 538.667 264.933 509.733 253.067 486.133C251.467 482.8 236.533 466.667 215.6 445.733L180.8 410.667L216.8 374.4C250 340.8 253.067 337.467 255.067 330.8C257.867 322 257.867 317.067 255.333 308.4C252.933 300.4 244.533 290.4 236.8 286.4C229.867 282.8 216 281.867 208.933 284.533ZM229.067 305.333C234.667 308.8 237.867 316 236.667 322.533C236 326.533 229.733 333.467 196.4 366.933C161.6 401.733 156.933 406.933 156.933 410.667C156.933 414.267 161.6 419.467 196.267 454.4C230.4 488.667 235.867 494.667 236.667 499.067C239.6 514.4 222.8 524.4 209.867 514.8C207.067 512.667 184.133 490.4 159.067 465.2C120.133 425.867 113.467 418.667 112.667 414.4C112.133 411.733 112.133 408.133 112.667 406.4C113.733 402.933 209.867 305.733 214 304C218.533 302 224.533 302.533 229.067 305.333Z" fill="white"/>
<path d="M455.2 284.8C441.467 289.733 431.6 304.133 431.733 319.2C431.867 334.4 433.6 336.667 472.4 375.6L507.2 410.667L472.4 445.733C433.6 484.533 431.867 487.067 431.733 501.867C431.733 516 439.067 528.533 451.333 535.067C455.6 537.333 458.933 538 468 538C482 538 486.933 535.467 500.4 521.6C510.4 511.2 511.467 507.333 506 502C500.667 496.533 496.8 497.6 486.933 507.2C482 511.867 476.667 516.267 475.067 517.2C470.667 519.467 463.867 518.933 459.067 516C452.933 512.4 451.467 508.533 451.867 498.667C452 496.267 462 485.333 490.533 456.667C511.733 435.467 529.733 416.667 530.533 415.067C531.333 413.467 532 411.067 532 409.867C532 408.533 514.933 390.267 493.467 368.667C472.267 347.467 454.267 328.533 453.333 326.8C451.067 322.267 451.467 314.133 454.133 310C459.467 302 469.867 300.4 478.133 306.533C484.267 311.067 570.667 397.867 573.867 402.667C576.4 406.4 576.667 413.6 574.533 417.733C573.733 419.333 560.533 433.333 545.2 448.8C529.867 464.133 517.333 477.733 517.333 479.067C517.333 485.733 524.667 491.867 530.267 490.133C531.733 489.733 546 476 562.267 459.6C588.667 432.933 591.867 429.333 594 422.933C596.933 413.867 596.267 402.8 592.267 394.667C590.267 390.4 574.667 374 538.4 337.867C492.8 292.533 486.667 286.8 480.8 284.8C472.8 282.267 462.533 282.133 455.2 284.8Z" fill="white"/>
</g>
<defs>
<clipPath id="clip0_95_2">
<rect width="682.667" height="682.667" fill="white"/>
</clipPath>
</defs>
</svg>
