<svg width="683" height="683" viewBox="0 0 683 683" fill="none" xmlns="http://www.w3.org/2000/svg">
<g clip-path="url(#clip0_95_11)">
<path d="M122.134 9.46679C118.667 12.1335 118.667 12.4001 118.667 29.3335V46.5335L71.0671 46.9335C24.8004 47.3335 23.2004 47.4668 17.8671 50.2668C10.8004 54.0001 3.60039 62.4001 1.60039 69.2001C-0.666276 76.5335 -0.666276 492.8 1.60039 500.133C3.60039 506.933 10.8004 515.333 17.8671 519.067C23.0671 521.867 24.9337 522 65.6004 522.4L108 522.8L111.334 519.467C115.6 515.2 115.734 509.467 111.6 505.6C108.667 502.933 107.334 502.8 67.4671 502.4L26.4004 502L23.2004 498.267L20.0004 494.533V284.667V74.8001L23.2004 71.0668L26.4004 67.3335H72.2671H118V74.6668V82.0001L82.0004 82.6668C41.2004 83.4668 40.5337 83.6001 36.6671 93.7335C34.8004 98.8001 34.6671 118.8 34.9337 287.333L35.3337 475.333L38.2671 479.467C44.2671 487.867 22.6671 487.333 341.334 487.333C660 487.333 638.4 487.867 644.4 479.467L647.334 475.333L647.734 287.333C648 118.8 647.867 98.8001 646 93.7335C642.134 83.6001 641.467 83.4668 600.667 82.6668L564.667 82.0001V74.6668V67.3335H610.4H656.267L659.467 71.0668L662.667 74.8001V284.667V494.533L659.467 498.267L656.267 502L401.334 502.667L146.4 503.333L143.867 506.533C142.534 508.267 141.334 510.4 141.334 511.467C141.334 514.933 144.4 519.733 147.6 521.2C149.734 522.133 166.934 522.667 200.667 522.667H250.667V550.4C250.667 570.533 250.134 580 248.8 584.533C247.734 588.133 242.934 596.133 237.467 603.467L228 616H202.8C178.934 616 177.467 616.133 173.334 619.067C164.8 624.8 163.334 628.133 162.934 642.933C162.267 659.067 164.534 666.267 171.734 671.733L176.4 675.333H341.334H506.267L510.934 671.733C518.134 666.267 520.4 659.067 519.734 642.933C519.334 628.133 517.867 624.8 509.334 619.067C505.2 616.133 503.734 616 479.867 616H454.667L445.2 603.467C439.734 596.133 434.934 588.133 433.867 584.533C432.534 580 432 570.667 432 550.533V522.667L545.734 522.4L659.334 522L664.8 519.067C671.867 515.333 679.067 506.933 681.067 500.133C682.267 496.4 682.667 440.267 682.667 283.867C682.667 74.2668 682.534 72.6668 679.867 66.6668C676.534 59.3335 671.6 54.0001 664.667 50.2668C659.467 47.4668 657.6 47.3335 611.734 46.9335L564 46.5335V29.3335C564 5.06679 567.334 6.66679 519.334 6.66679C483.334 6.66679 481.6 6.80013 478.134 9.46679C473.6 13.0668 473.334 19.7335 477.734 23.7335C480.8 26.5335 481.867 26.6668 512.4 26.6668H544V54.6668V82.6668H341.334H138.667V54.6668V26.6668H289.734C454.134 26.6668 445.334 27.0668 447.2 19.3335C448.134 15.4668 445.2 8.80013 442 7.46679C440.8 7.06679 369.067 6.66679 282.8 6.66679C125.867 6.66679 125.734 6.66679 122.134 9.46679ZM118.4 284.933L118 467.333H86.6671H55.3337L54.9337 284.933L54.6671 102.667H86.6671H118.667L118.4 284.933ZM544 285.333V468H341.334H138.667V285.333V102.667H341.334H544V285.333ZM627.734 284.933L627.334 467.333H596H564.667L564.267 284.933L564 102.667H596H628L627.734 284.933ZM412.267 554.933C412.8 590.933 413.2 593.2 423.467 607.6C426 611.2 428 614.4 428 614.933C428 615.6 424.134 616 419.334 616C412.267 616 410.267 616.533 408 618.933C404.667 622.533 404.534 628.133 407.867 632.133L410.4 635.333L455.2 635.733L500 636.133V646V656H341.334H182.667V646V636H276C341.467 636 370.134 635.6 372.4 634.533C375.6 633.067 378.667 628.267 378.667 624.8C378.667 623.867 377.467 621.467 375.867 619.467L373.2 616H313.867C281.334 616 254.667 615.467 254.667 614.933C254.667 614.4 256.267 611.733 258.134 609.2C268.8 594.933 270.667 586.267 270.667 550.667V522.667H341.2H411.734L412.267 554.933Z" fill="white"/>
<path d="M195.201 125.467C193.867 126 185.601 133.6 177.067 142.267C164.401 155.2 161.334 158.933 161.334 162C161.334 165.2 164.267 168.8 177.067 181.467C186.667 191.067 194.134 197.467 196.401 198.133C202.001 199.467 207.201 195.2 207.734 188.667C208.134 184 207.601 183.067 197.467 173.467C191.467 167.733 186.667 162.667 186.667 162C186.667 161.333 191.467 155.867 197.334 149.867C205.734 141.333 208.001 138.133 208.001 135.067C208.001 127.733 201.734 122.933 195.201 125.467Z" fill="white"/>
<path d="M248.401 125.334C246.801 126 244.934 127.6 244.134 129.067C242.134 132.934 229.334 184.667 229.334 189.2C229.334 191.867 230.401 194 232.801 195.867C237.334 199.467 240.401 199.334 244.534 195.6C247.334 193.2 249.067 187.867 255.201 163.467C262.534 134.134 262.801 130.534 258.534 127.067C255.601 124.8 251.601 124.134 248.401 125.334Z" fill="white"/>
<path d="M288.4 126C286.267 126.933 284 128.667 283.467 130C281.2 135.867 282.667 138.8 293.867 150.4L305.2 162L293.867 173.467C281.467 186.267 280.267 189.6 286 195.333C292.134 201.6 294.934 200.267 312.934 182.267C334.4 160.8 334.4 162.267 314.534 142C298.534 125.6 294.8 123.333 288.4 126Z" fill="white"/>
<path d="M164.667 226C160.667 230 160.4 234.533 164.133 239.2L166.8 242.667H191.467C214.267 242.667 216.133 242.533 218.667 240C222.667 236 222.267 228.933 217.867 225.467C214.533 222.933 212.533 222.667 191.067 222.667C168.267 222.667 167.867 222.667 164.667 226Z" fill="white"/>
<path d="M247.067 224.267C240.667 227.333 240.267 238 246.534 241.2C248.267 242.267 291.467 242.667 383.867 242.667H518.534L521.2 239.2C524.934 234.533 524.667 230 520.667 226L517.467 222.667L383.734 222.8C292.934 222.8 249.067 223.333 247.067 224.267Z" fill="white"/>
<path d="M168.133 264.133C161.2 266.933 159.2 274.533 164 279.733L166.8 282.667H262H357.2L359.2 279.733C362 275.733 361.867 270.267 358.8 266.533L356.267 263.333L263.733 263.067C206 262.933 170.133 263.333 168.133 264.133Z" fill="white"/>
<path d="M389.867 263.6C382.801 265.067 379.867 274.667 384.667 280C386.934 282.533 388.667 282.667 418.801 282.667H450.534L453.201 279.2C456.801 274.533 456.667 271.6 452.801 267.067L449.601 263.333L421.067 263.2C405.467 263.067 391.334 263.2 389.867 263.6Z" fill="white"/>
<path d="M164.134 307.467C160.667 311.867 160.534 316.134 163.867 320.134C166.4 323.2 167.067 323.334 190.267 323.734C212.934 324.134 214.267 324 217.734 321.334C222.267 317.734 222.667 310.667 218.667 306.667C216.134 304.134 214.267 304 191.467 304H166.8L164.134 307.467Z" fill="white"/>
<path d="M246.267 305.467C240.001 309.2 240.934 319.733 247.734 322.533C250.267 323.6 290.001 324 385.067 323.733L518.934 323.333L521.467 320.133C524.801 316.133 524.667 311.867 521.201 307.467L518.534 304H383.601C291.867 304.133 247.867 304.533 246.267 305.467Z" fill="white"/>
<path d="M164.667 347.334C162.801 349.067 161.334 352.134 161.334 354C161.334 355.867 162.801 358.934 164.667 360.667L167.867 364H228.001H288.134L291.334 360.667C295.601 356.534 295.601 351.467 291.334 347.334L288.134 344H228.001H167.867L164.667 347.334Z" fill="white"/>
<path d="M318 347.334C316.134 349.067 314.667 352.134 314.667 354C314.667 355.867 316.134 358.934 318 360.667L321.2 364H385.334H449.467L452.934 360.534C455.6 357.867 456.134 356.4 455.467 352.934C453.734 343.734 456.134 344 385.067 344H321.2L318 347.334Z" fill="white"/>
<path d="M167.201 385.867C160.667 388.8 159.467 394.667 164.134 400.534L166.801 404H191.467C214.267 404 216.134 403.867 218.667 401.334C222.001 398 222.134 391.867 218.801 387.867C216.267 384.8 215.601 384.667 193.734 384.4C176.934 384.134 170.267 384.534 167.201 385.867Z" fill="white"/>
<path d="M248.4 385.334C241.6 388.134 240 395.867 245.067 401.6C246.933 403.867 255.2 404 382.8 404H518.533L521.2 400.534C526 394.4 524.267 388 517.2 385.467C512 383.6 252.933 383.6 248.4 385.334Z" fill="white"/>
<path d="M164.134 428.8C159.6 434.533 160.667 440.267 166.8 443.333C169.867 445.067 180.134 445.333 227.867 445.333C267.067 445.333 286.267 444.8 288.4 443.867C291.6 442.4 294.667 437.6 294.667 434.133C294.667 433.2 293.467 430.8 291.867 428.8L289.2 425.333H228H166.8L164.134 428.8Z" fill="white"/>
<path d="M317.601 428.4C314.001 432.267 313.867 437.334 317.201 441.467L319.734 444.667L382.801 445.067C426.401 445.334 447.067 444.934 449.467 444C452.801 442.534 456.001 437.867 456.001 434.134C456.001 433.2 454.801 430.8 453.201 428.8L450.534 425.334H385.467H320.401L317.601 428.4Z" fill="white"/>
<path d="M177.867 45.4668C174.933 46.9335 172 51.8668 172 55.2002C172 56.1335 173.2 58.5335 174.8 60.5335C180.133 67.3335 192 63.2002 192 54.4002C192 47.4668 184 42.5335 177.867 45.4668Z" fill="white"/>
<path d="M216.667 47.0667C209.334 53.3333 213.201 64 222.801 64C228.001 64 232.001 59.7333 232.001 54.2667C232.001 45.8667 222.934 41.6 216.667 47.0667Z" fill="white"/>
<path d="M259.067 45.3337C255.601 46.8003 253.334 50.667 253.334 55.2003C253.334 63.6003 265.201 67.2003 270.534 60.5337C274.267 55.7337 274.001 52.5337 269.467 47.867C265.334 43.7337 263.867 43.467 259.067 45.3337Z" fill="white"/>
</g>
<defs>
<clipPath id="clip0_95_11">
<rect width="682.667" height="682.667" fill="white"/>
</clipPath>
</defs>
</svg>
