<svg width="76" height="76" viewBox="0 0 76 76" fill="none" xmlns="http://www.w3.org/2000/svg">
<path d="M66.5001 6.33331H9.50008C6.01675 6.33331 3.16675 9.18331 3.16675 12.6666V63.3333C3.16675 66.8167 6.01675 69.6667 9.50008 69.6667H66.5001C69.9834 69.6667 72.8334 66.8167 72.8334 63.3333V12.6666C72.8334 9.18331 69.9834 6.33331 66.5001 6.33331ZM34.8334 34.8333H28.5001V39.5833C28.5001 43.0667 25.6501 45.9167 22.1667 45.9167C25.6501 45.9167 28.5001 48.7667 28.5001 52.25V57H34.8334V63.3333H28.5001C25.0167 63.3333 22.1667 60.4833 22.1667 57V55.4167C22.1667 51.9333 19.3167 49.0833 15.8334 49.0833V42.75C19.3167 42.75 22.1667 39.9 22.1667 36.4166V34.8333C22.1667 31.35 25.0167 28.5 28.5001 28.5H34.8334V34.8333ZM60.1667 49.0833C56.6834 49.0833 53.8334 51.9333 53.8334 55.4167V57C53.8334 60.4833 50.9834 63.3333 47.5001 63.3333H41.1667V57H47.5001V52.25C47.5001 48.7667 50.3501 45.9167 53.8334 45.9167C50.3501 45.9167 47.5001 43.0667 47.5001 39.5833V34.8333H41.1667V28.5H47.5001C50.9834 28.5 53.8334 31.35 53.8334 34.8333V36.4166C53.8334 39.9 56.6834 42.75 60.1667 42.75V49.0833ZM66.5001 22.1666H9.50008V12.6666H66.5001V22.1666Z" fill="#C5C3C6"/>
</svg>
