<svg width="87" height="87" viewBox="0 0 87 87" fill="none" xmlns="http://www.w3.org/2000/svg">
<path d="M77.3213 46.7988C77.6476 52.4175 75.0738 57.8188 70.4701 61.1175L73.2613 66.5188C74.0951 68.15 74.2038 70.0713 73.4788 71.775C72.7901 73.4788 71.3763 74.82 69.6363 75.4L66.7726 76.3063C65.5801 76.708 64.2928 76.7321 63.0862 76.3753C61.8795 76.0185 60.8123 75.2981 60.0301 74.3125L52.3451 65.25C49.1188 64.7063 46.0738 63.3288 43.5001 61.2625C41.6876 61.8063 39.8751 62.0963 38.0626 62.0963C34.8726 62.0963 31.6826 61.1175 29.0001 59.2325C27.0788 59.8125 25.1213 60.0663 23.1276 60.03C20.2638 60.0663 17.4363 59.4863 14.7901 58.3988C12.2429 57.2623 10.0665 55.4328 8.50898 53.1189C6.95147 50.8051 6.07562 48.1001 5.98134 45.3125C5.69134 42.7025 6.12634 40.0563 7.25009 37.6638C6.19884 34.945 6.09009 31.9725 6.99634 29.2175C8.33759 25.7738 10.8751 22.91 14.0288 21.0975C16.1313 14.9713 22.0401 10.875 28.5288 11.31C34.3288 5.87252 43.2101 5.29252 49.6626 9.96877C51.1851 9.57002 52.7801 9.35252 54.3751 9.35252C59.3051 9.24377 63.9813 11.4188 67.0626 15.2975C74.4576 17.2188 79.7501 23.8163 80.0401 31.5013C80.2213 35.525 79.1338 39.4763 76.9226 42.8475C77.1763 44.1525 77.3213 45.4575 77.3213 46.7988ZM59.1963 41.6875C61.2626 41.9413 62.8938 43.5 62.8938 45.5663C62.8938 46.5277 62.5119 47.4497 61.8321 48.1295C61.1523 48.8093 60.2302 49.1913 59.2688 49.1913H56.9851C55.8251 52.4538 53.7951 55.3175 51.1126 57.4925C52.0188 57.8188 52.9613 58 53.9038 58.2538C72.5001 58 70.3251 46.6538 70.3251 46.4725C70.2289 43.9825 69.1475 41.6327 67.3188 39.9399C65.4901 38.2472 63.0639 37.3502 60.5738 37.4463C59.6124 37.4463 58.6904 37.0643 58.0106 36.3845C57.3308 35.7047 56.9488 34.7827 56.9488 33.8213C56.9488 32.8599 57.3308 31.9378 58.0106 31.258C58.6904 30.5782 59.6124 30.1963 60.5738 30.1963C65.0326 30.305 69.3101 31.9725 72.6451 34.9088C72.8263 33.8575 72.9351 32.77 72.9351 31.6825C72.7176 27.1875 70.6876 23.2725 62.5313 22.5113C58.0001 11.7813 46.5813 17.7263 46.5813 21.0613C46.4726 21.895 47.3426 23.6713 47.4876 23.78C48.449 23.78 49.371 24.1619 50.0508 24.8418C50.7307 25.5216 51.1126 26.4436 51.1126 27.405C51.1126 29.3988 49.4813 31.03 47.4876 31.03C45.5663 30.9575 43.7538 30.2325 42.3038 29C40.5638 30.1238 38.5701 30.8125 36.5038 31.03C34.4376 31.2113 32.7338 29.7613 32.6251 27.7675C32.5583 27.294 32.589 26.8118 32.7153 26.3506C32.8416 25.8894 33.0609 25.4588 33.3596 25.0854C33.6584 24.712 34.0303 24.4036 34.4525 24.1791C34.8748 23.9546 35.3385 23.8188 35.8151 23.78C36.3951 23.7075 39.2226 23.2725 39.2226 20.9888C39.2226 18.5963 40.1288 16.3125 41.6876 14.5C38.3526 13.5938 34.7638 14.79 31.1388 19.1763C24.4688 18.125 21.7501 19.0313 19.7563 26.1C16.3126 27.8038 14.5001 29 13.7026 32.625C17.6176 31.8275 21.6413 32.1538 25.3751 33.5313C27.1876 34.22 28.2026 36.25 27.5138 38.2075C26.8251 40.0925 24.7226 41.035 22.8376 40.3463C20.1913 39.1863 17.2188 39.1138 14.5001 40.1288C13.3401 41.1075 13.3401 43.1375 13.3401 44.7325C13.3401 47.415 14.6813 49.9163 16.9651 51.3663C18.8863 52.345 21.0251 52.8525 23.1638 52.8163C22.6201 51.8738 22.1488 50.895 21.7501 49.88C21.4647 48.9487 21.5516 47.9429 21.9926 47.0744C22.4335 46.2058 23.1941 45.5421 24.1144 45.2228C25.0347 44.9035 26.0429 44.9535 26.9271 45.3624C27.8112 45.7712 28.5023 46.507 28.8551 47.415C30.3051 51.5475 34.0026 54.375 38.3526 54.8463C43.3188 54.5925 47.7413 51.6563 49.9163 47.125C50.7501 42.1225 54.7738 41.6875 59.1963 41.6875ZM66.4463 68.7663L64.1988 64.0538L61.6251 64.6338L65.2501 69.165L66.4463 68.7663V68.7663ZM49.5901 37.555C49.6216 36.629 49.2973 35.726 48.6838 35.0316C48.0703 34.3372 47.2142 33.9041 46.2913 33.8213C43.7176 33.6763 41.2163 34.5463 39.2951 36.25C37.2288 38.3525 36.1413 41.2525 36.2501 44.1888C36.2501 45.1502 36.632 46.0722 37.3118 46.752C37.9916 47.4318 38.9137 47.8138 39.8751 47.8138C41.9413 47.8138 43.5001 46.1825 43.5001 44.1888C43.5001 43.21 43.7538 42.2313 44.3338 41.4338C44.7688 41.0713 45.3126 40.89 45.8926 40.89C47.8863 40.9988 49.5901 39.5125 49.5901 37.555Z" fill="#C5C3C6"/>
</svg>
