<svg width="1412" height="756" viewBox="0 0 1412 756" fill="none" xmlns="http://www.w3.org/2000/svg">
<g clip-path="url(#clip0_0_1)">
<path d="M1084.79 476.898L1085.4 489.2C1081.83 487.119 1077.04 488.993 1075.34 493.132C1073.64 497.27 1075.35 502.925 1078.92 504.993C1076.93 507.948 1073.24 508.158 1070.01 508.41C1066.79 508.662 1063.01 509.693 1061.87 513.221C1060.96 516.054 1062.3 519.388 1064.35 521.315C1066.4 523.243 1069.01 524.082 1071.54 524.873C1066.29 527.329 1063.08 534.527 1064.31 541.065C1065.54 547.603 1071.08 552.736 1076.77 552.612C1071.63 555.576 1069.32 563.758 1071.89 569.873C1074.49 576.037 1080.6 578.909 1086.27 580.568C1100.7 584.813 1116.07 584.706 1130.45 580.258C1135.94 578.553 1141.38 576.152 1145.76 571.966C1150.14 567.779 1153.36 561.576 1153.39 554.889C1151.16 562.415 1156.23 571.009 1162.67 573.88C1169.11 576.752 1176.27 575.279 1182.78 572.953C1191.44 569.859 1200.49 564.325 1203.37 554.279C1204.79 549.305 1204.49 543.872 1204.17 538.599L1203.55 528.377C1203.3 524.25 1203.03 520.05 1201.75 516.171C1200.47 512.291 1197.99 508.71 1194.62 507.425C1196.75 504.208 1198.94 500.86 1199.75 496.874C1200.55 492.887 1199.58 488.06 1196.57 485.881C1192.72 483.107 1187.57 485.646 1183.42 483.605C1179.42 481.641 1177.61 476.162 1174.23 472.958C1172.86 471.6 1171.12 470.674 1169.22 470.291C1167.33 469.909 1165.36 470.088 1163.57 470.806C1160.06 472.303 1157.36 476.092 1156.73 480.421C1156.18 484.213 1157.12 488.111 1157.11 491.97C1157.1 495.83 1155.62 500.225 1152.43 501.095C1148.57 502.145 1145.18 497.363 1144.25 492.811C1143.33 488.259 1143.7 483.326 1141.93 479.113C1139.84 474.141 1134.7 471.17 1130.12 472.29C1125.55 473.411 1121.98 478.514 1121.94 484.009C1121.9 488.503 1123.75 493.785 1121.14 497.017C1118.39 500.433 1113.13 497.824 1110.91 493.792C1108.7 489.761 1108.13 484.763 1105.97 480.684C1103.79 476.543 1099.97 473.618 1095.88 472.951C1093.79 472.651 1091.66 472.883 1089.68 473.625C1087.7 474.367 1085.94 475.594 1084.57 477.195" fill="#DCDCDD"/>
<path d="M1171.94 476.823L1160.49 477.564C1158.75 477.719 1157.01 477.299 1155.53 476.371C1154.25 475.491 1153.64 474.26 1153.84 472.993L1155.68 461.571C1156.02 459.416 1158.58 457.702 1161.77 457.496L1168.09 457.086C1171.27 456.88 1174.03 458.25 1174.65 460.342L1177.95 471.433C1178.31 472.663 1177.86 473.963 1176.7 475C1175.36 476.112 1173.68 476.752 1171.94 476.823V476.823Z" fill="#3F3D56"/>
<path opacity="0.75" d="M946.778 165.099C965.594 143.671 988.677 126.41 1014.55 114.419C1036.49 104.252 1060.57 114.378 1060.57 114.378L1060.78 114.26C1069.44 109.308 1079.38 107.026 1089.33 107.7C1099.29 108.373 1108.82 111.972 1116.74 118.044C1118.8 119.611 1120.47 120.6 1121.44 120.633C1139.02 121.225 1143.04 108.712 1160.22 104.045C1190.31 95.8731 1260.2 145.75 1258.81 181.742C1257.69 210.912 1292.41 238.746 1299.55 264.166C1300.67 268.14 1301.73 272.134 1302.73 276.146C1303.21 278.014 1303.67 279.888 1304.11 281.769C1308.69 301.006 1311.92 320.541 1313.77 340.231C1315 353.102 1315.38 366.041 1314.93 378.963C1312.84 430.027 1294.53 461.565 1255.24 436.762C1250.59 433.823 1246.02 431.035 1241.53 428.398C1235.04 424.572 1228.7 421.042 1222.53 417.808C1214.23 413.446 1206.21 409.589 1198.49 406.236C1195.89 405.106 1193.33 404.029 1190.8 403.007C1153.44 387.899 1122.82 384.151 1097.33 386.886C1093.01 387.345 1088.84 387.985 1084.81 388.805C1078.67 390.04 1072.62 391.697 1066.7 393.764C1058.51 396.654 1050.58 400.263 1043.02 404.549L1042.6 404.785C1005.98 425.522 984.748 455.979 965.177 455.193C881.513 451.841 870.448 341.939 900.516 250.308C902.03 245.69 903.648 241.127 905.369 236.62C906.135 234.604 906.923 232.602 907.734 230.616C909.836 225.428 912.079 220.334 914.452 215.363C915.356 213.461 916.279 211.578 917.221 209.714C918.241 207.707 919.275 205.718 920.339 203.757C928.09 189.36 936.964 176.245 946.778 165.099Z" fill="#19A180"/>
<path d="M1156.45 303.347C1149.49 303.803 1144.61 316.064 1144.92 320.767L1145.47 329.281L1170.68 327.649L1170.13 319.135C1169.82 314.432 1163.41 302.902 1156.45 303.347Z" fill="#3F3D56"/>
<path d="M1058.85 384.62C1058.47 384.474 1058.13 384.239 1057.87 383.936C1057.6 383.633 1057.41 383.271 1057.32 382.879C1057.22 382.487 1057.22 382.078 1057.32 381.687C1057.41 381.295 1057.6 380.932 1057.87 380.629C1058.09 380.381 1058.35 380.179 1058.64 380.034C1058.94 379.888 1059.26 379.803 1059.59 379.783L1189.79 371.354C1190.12 371.332 1190.45 371.376 1190.76 371.482C1191.07 371.588 1191.36 371.754 1191.61 371.971C1191.85 372.188 1192.06 372.452 1192.2 372.747C1192.35 373.042 1192.43 373.363 1192.45 373.691C1192.5 374.354 1192.27 375.007 1191.83 375.506C1191.4 376.005 1190.78 376.31 1190.12 376.353L1190.11 376.353L1059.91 384.782C1059.55 384.807 1059.18 384.751 1058.85 384.62V384.62Z" fill="#3F3D56"/>
<path d="M1177.21 335.479L1139.99 337.889L1148.11 463.561L1185.33 461.152L1177.21 335.479Z" fill="#E6E6E6"/>
<path d="M1110.89 155.497C1103.93 155.953 1099.06 168.214 1099.36 172.917L1099.91 181.431L1125.12 179.799L1124.57 171.285C1124.27 166.582 1117.86 155.052 1110.89 155.497Z" fill="#3F3D56"/>
<path d="M1137.84 477.667L1126.39 478.409C1124.65 478.563 1122.91 478.144 1121.43 477.215C1120.15 476.335 1119.53 475.104 1119.74 473.838L1121.58 462.415C1121.92 460.26 1124.48 458.546 1127.67 458.34L1133.99 457.931C1137.17 457.725 1139.93 459.094 1140.55 461.187L1143.84 472.277C1144.21 473.507 1143.76 474.807 1142.6 475.845C1141.26 476.956 1139.58 477.596 1137.84 477.667V477.667Z" fill="#3F3D56"/>
<path d="M1102.26 480.887L1090.81 481.629C1089.07 481.783 1087.33 481.364 1085.85 480.435C1084.58 479.555 1083.96 478.324 1084.16 477.058L1086 465.635C1086.35 463.48 1088.91 461.766 1092.09 461.56L1098.41 461.151C1101.6 460.945 1104.36 462.314 1104.98 464.407L1108.27 475.497C1108.63 476.727 1108.18 478.027 1107.02 479.065C1105.68 480.176 1104.01 480.816 1102.26 480.887V480.887Z" fill="#3F3D56"/>
<path d="M1133.04 209.006L1095.82 211.416L1112.23 465.448L1149.45 463.039L1133.04 209.006Z" fill="#E6E6E6"/>
<path d="M1122.68 332.652L1122.16 323.492L1124.56 323.343L1125.08 332.474L1132.17 465.565L1129.77 465.72" fill="#3F3D56"/>
<path d="M1165.09 341.673L1164.58 332.513L1166.98 332.364L1167.49 341.495L1174.59 474.586L1172.19 474.742" fill="#3F3D56"/>
<path d="M1141.23 232.008L1090.8 235.273C1089.73 229.984 1089.95 205.113 1094.29 199.393L1095.29 192.721L1130.11 190.466L1132.17 196.857C1137.33 200.931 1140.83 225.732 1141.23 232.008Z" fill="#E6E6E6"/>
<path d="M1131.24 191.207L1095.31 193.534C1093.98 193.619 1092.86 192.963 1092.8 192.067C1092.79 191.938 1092.81 191.809 1092.84 191.684L1097.79 174.263C1098.01 173.517 1098.94 172.941 1100.05 172.869L1123.88 171.326C1124.99 171.254 1125.99 171.706 1126.29 172.418L1133.45 189.056C1133.81 189.907 1133.07 190.834 1131.8 191.126C1131.61 191.168 1131.43 191.195 1131.24 191.207V191.207Z" fill="#E6E6E6"/>
<path d="M1103.98 332.174C1103.65 332.047 1103.34 331.88 1103.05 331.679C1102.63 331.41 1102.28 331.049 1102.03 330.625C1101.77 330.201 1101.62 329.724 1101.58 329.231L1098.52 281.943C1098.4 279.985 1100.26 278.266 1102.66 278.11L1134.83 276.027C1137.24 275.871 1139.3 277.337 1139.43 279.295L1142.49 326.583C1142.51 327.077 1142.42 327.57 1142.22 328.023C1142.02 328.477 1141.72 328.879 1141.35 329.199C1140.51 329.932 1139.45 330.361 1138.35 330.416L1106.18 332.498C1105.43 332.551 1104.68 332.44 1103.98 332.174Z" fill="#3F3D56"/>
<path d="M1105.35 339.685L1068.13 342.094L1076.25 467.767L1113.47 465.357L1105.35 339.685Z" fill="#E6E6E6"/>
<path d="M1119.32 188.599L1108.4 189.305C1106.3 189.442 1104.42 187.125 1104.23 184.143C1104.04 181.16 1105.6 178.622 1107.7 178.486L1118.62 177.779C1120.72 177.643 1122.59 179.959 1122.79 182.942C1122.98 185.924 1121.42 188.462 1119.32 188.599Z" fill="#3F3D56"/>
<path d="M1085.32 307.506C1078.35 307.962 1073.48 320.223 1073.78 324.926L1074.33 333.44L1099.54 331.807L1098.99 323.293C1098.69 318.591 1092.28 307.06 1085.32 307.506Z" fill="#3F3D56"/>
<path d="M996.899 244.925C994.277 245.504 993.428 241.374 996.066 240.872C998.687 240.293 999.536 244.423 996.899 244.925Z" fill="#E6E6E6"/>
<path d="M1232.09 281.631C1229.47 282.21 1228.62 278.079 1231.26 277.577C1233.88 276.998 1234.73 281.129 1232.09 281.631Z" fill="#E6E6E6"/>
<path d="M1069.69 262.017C1067.07 262.596 1066.22 258.465 1068.86 257.963C1071.48 257.384 1072.33 261.515 1069.69 262.017Z" fill="#E6E6E6"/>
<path d="M950.411 364.655C947.789 365.234 946.941 361.103 949.578 360.601C952.199 360.022 953.048 364.153 950.411 364.655Z" fill="#E6E6E6"/>
<path d="M1161.55 135.7C1158.93 136.279 1158.08 132.149 1160.72 131.647C1163.34 131.068 1164.19 135.198 1161.55 135.7Z" fill="#E6E6E6"/>
<path d="M1034.39 159.56C1031.77 160.139 1030.92 156.009 1033.55 155.507C1036.18 154.928 1037.02 159.058 1034.39 159.56Z" fill="#E6E6E6"/>
<path d="M1188.83 198.531L1187.62 197.726L1188.42 196.513L1187.61 195.977L1186.81 197.19L1185.6 196.385L1185.06 197.193L1186.27 197.998L1185.47 199.211L1186.28 199.747L1187.08 198.535L1188.29 199.34L1188.83 198.531Z" fill="#E6E6E6"/>
<path d="M930.206 225.205L928.994 224.4L929.798 223.188L928.99 222.651L928.185 223.863L926.972 223.058L926.436 223.867L927.648 224.672L926.843 225.885L927.652 226.421L928.457 225.209L929.669 226.013L930.206 225.205Z" fill="#E6E6E6"/>
<path d="M1180.04 387.039C1178.74 387.122 1177.46 386.685 1176.48 385.825C1175.5 384.965 1174.9 383.751 1174.82 382.45L1173.92 368.594C1173.84 367.293 1174.28 366.013 1175.14 365.035C1176 364.056 1177.21 363.459 1178.51 363.375C1179.81 363.291 1181.09 363.726 1182.07 364.586C1183.05 365.445 1183.65 366.658 1183.74 367.959L1184.63 381.815C1184.71 383.116 1184.28 384.396 1183.42 385.376C1182.56 386.355 1181.34 386.954 1180.04 387.039V387.039Z" fill="#3F3D56"/>
<path d="M1070.54 394.174C1069.24 394.257 1067.96 393.82 1066.98 392.959C1066 392.099 1065.4 390.885 1065.32 389.584L1064.42 375.728C1064.34 374.428 1064.78 373.148 1065.64 372.169C1066.5 371.191 1067.71 370.594 1069.01 370.51C1070.31 370.425 1071.59 370.861 1072.57 371.72C1073.55 372.58 1074.15 373.793 1074.24 375.093L1075.13 388.949C1075.21 390.25 1074.78 391.531 1073.92 392.51C1073.06 393.49 1071.84 394.088 1070.54 394.174Z" fill="#3F3D56"/>
<path d="M1181.6 358.131L1138.44 360.925C1137.52 356.399 1137.71 335.112 1141.42 330.217L1144.59 324.357L1170.58 322.121L1173.84 328.047C1181.55 328.388 1185.01 349.171 1181.6 358.131Z" fill="#E6E6E6"/>
<path d="M1165.08 350.362L1154.17 351.068C1152.06 351.204 1150.14 348.106 1149.88 344.163C1149.63 340.219 1151.14 336.899 1153.24 336.763L1164.16 336.056C1166.26 335.92 1168.18 339.018 1168.44 342.962C1168.69 346.905 1167.19 350.225 1165.08 350.362Z" fill="#3F3D56"/>
<path d="M1078.08 342.024L1077.57 332.864L1079.97 332.716L1080.48 341.846L1087.58 474.937L1085.18 475.093" fill="#3F3D56"/>
<path d="M1110.46 362.289L1067.3 365.083C1062.99 360.203 1061.83 338.776 1070.29 334.376L1073.45 328.515L1099.44 326.279L1102.71 332.205C1107.13 335.692 1110.12 356.918 1110.46 362.289Z" fill="#E6E6E6"/>
<path d="M1093.82 352.608L1082.91 353.315C1080.8 353.451 1078.91 350.782 1078.69 347.366C1078.47 343.949 1080 341.058 1082.11 340.922L1093.02 340.215C1095.13 340.079 1097.02 342.748 1097.24 346.164C1097.46 349.581 1095.93 352.472 1093.82 352.608Z" fill="#3F3D56"/>
<path d="M939.103 201.89C969.777 213.8 1004.3 198.584 1016.21 167.905C1028.12 137.225 1012.91 102.7 982.24 90.79C951.566 78.88 917.043 94.0957 905.131 124.775C893.219 155.455 908.429 189.98 939.103 201.89Z" fill="#FF6584"/>
<path opacity="0.3" d="M1165.93 292.617L1237.96 207.129L1163.08 290.151C1162.8 290.312 1162.57 290.534 1162.4 290.802C1162.23 291.069 1162.13 291.373 1162.1 291.688C1162.07 292.003 1162.12 292.32 1162.24 292.614C1162.36 292.908 1162.54 293.169 1162.78 293.376C1163.02 293.583 1163.31 293.73 1163.61 293.804C1163.92 293.879 1164.24 293.879 1164.55 293.805C1164.86 293.731 1165.14 293.584 1165.38 293.378C1165.62 293.171 1165.81 292.91 1165.93 292.617L1165.93 292.617Z" fill="#F0F0F0"/>
<path d="M1274.78 267.255C1267.32 266.885 1259.16 266.199 1250.3 265.195C1204.44 259.997 1145.37 246.892 1083.95 228.295C1022.53 209.697 966.109 187.828 925.077 166.717C905.089 156.432 889.83 146.879 879.726 138.321C869.028 129.261 864.532 121.603 866.362 115.56C869.927 103.787 896.392 102.482 917.965 103.461L917.887 105.195C888.261 103.851 870.552 107.71 868.023 116.063C864.801 126.701 885.886 144.6 925.871 165.173C966.813 186.238 1023.13 208.065 1084.45 226.634C1145.77 245.202 1204.74 258.284 1250.49 263.47C1295.17 268.536 1322.65 265.339 1325.87 254.701C1328.54 245.869 1314.49 231.967 1286.29 215.556L1287.16 214.056C1307.65 225.981 1331.28 242.799 1327.53 255.204C1325.7 261.247 1317.71 265.124 1303.78 266.728C1295.84 267.642 1286.14 267.817 1274.78 267.255Z" fill="#3F3D56"/>
<path d="M1252.85 372.115C1256.04 373.352 1259.62 371.771 1260.86 368.584C1262.1 365.396 1260.52 361.808 1257.33 360.571C1254.14 359.333 1250.56 360.914 1249.32 364.102C1248.08 367.29 1249.66 370.877 1252.85 372.115Z" fill="#FF6584"/>
<path d="M1228.79 542.755C1231.98 543.992 1235.56 542.411 1236.8 539.224C1238.04 536.036 1236.46 532.448 1233.27 531.211C1230.08 529.973 1226.5 531.554 1225.26 534.742C1224.02 537.93 1225.6 541.517 1228.79 542.755Z" fill="#DCDCDD"/>
<path d="M1018.33 501.48C1024.54 503.893 1031.53 500.81 1033.95 494.595C1036.36 488.38 1033.28 481.386 1027.06 478.973C1020.85 476.56 1013.86 479.642 1011.44 485.858C1009.03 492.073 1012.11 499.067 1018.33 501.48Z" fill="#DCDCDD"/>
<path d="M990.419 319.249C993.606 320.487 997.193 318.906 998.431 315.718C999.669 312.53 998.088 308.943 994.901 307.705C991.714 306.468 988.127 308.049 986.889 311.237C985.651 314.424 987.232 318.012 990.419 319.249Z" fill="#3F3D56"/>
<path d="M1181.52 402.093L1203.91 418.207L1207.53 454.138L1181.32 445.126L1181.52 402.093Z" fill="#E6E6E6"/>
<path d="M1140.84 336.528L1149.22 355.562L1154.8 444.341L1146.24 447.39L1140.84 336.528Z" fill="#CCCCCC"/>
<path d="M1106.21 337.39L1099.77 357.166L1103.06 446.06L1111.88 448.239L1106.21 337.39Z" fill="#CCCCCC"/>
<path d="M1074.95 415.25L1053.02 431.995L1050.41 468.014L1076.36 458.261L1074.95 415.25Z" fill="#E6E6E6"/>
<path d="M1188.17 474.733C1181.21 472.029 1173.68 468.803 1165.58 465.054C1123.71 445.659 1071.79 414.588 1019.37 377.567C966.954 340.545 920.309 301.994 888.029 269.017C872.305 252.952 860.839 239.073 853.949 227.764C846.654 215.792 844.803 207.106 848.445 201.949C855.54 191.901 881.065 199.01 901.228 206.744L900.607 208.365C872.918 197.744 854.896 195.821 849.862 202.95C843.451 212.029 857.814 235.667 889.27 267.803C921.478 300.707 968.038 339.186 1020.37 376.149C1072.7 413.112 1124.54 444.126 1166.31 463.479C1207.11 482.379 1234.19 488.012 1240.61 478.933C1245.93 471.394 1236.97 453.768 1215.39 429.3L1216.69 428.152C1232.38 445.931 1249.5 469.346 1242.02 479.934C1238.38 485.092 1229.58 486.251 1215.86 483.38C1208.03 481.743 1198.77 478.848 1188.17 474.733Z" fill="#3F3D56"/>
</g>
<path d="M136.72 240.864C131.632 240.864 127.264 239.784 123.616 237.624C119.968 235.416 117.16 232.368 115.192 228.48C113.224 224.544 112.24 220.008 112.24 214.872C112.24 209.736 113.224 205.2 115.192 201.264C117.16 197.328 119.968 194.256 123.616 192.048C127.264 189.84 131.632 188.736 136.72 188.736C142.768 188.736 147.712 190.248 151.552 193.272C155.44 196.248 157.864 200.448 158.824 205.872H148.672C148.048 203.136 146.704 201 144.64 199.464C142.624 197.88 139.936 197.088 136.576 197.088C131.92 197.088 128.272 198.672 125.632 201.84C122.992 205.008 121.672 209.352 121.672 214.872C121.672 220.392 122.992 224.736 125.632 227.904C128.272 231.024 131.92 232.584 136.576 232.584C139.936 232.584 142.624 231.864 144.64 230.424C146.704 228.936 148.048 226.896 148.672 224.304H158.824C157.864 229.488 155.44 233.544 151.552 236.472C147.712 239.4 142.768 240.864 136.72 240.864ZM190.598 240.864C185.558 240.864 181.142 239.76 177.35 237.552C173.606 235.344 170.654 232.296 168.494 228.408C166.382 224.472 165.326 219.936 165.326 214.8C165.326 209.664 166.382 205.152 168.494 201.264C170.654 197.328 173.606 194.256 177.35 192.048C181.142 189.84 185.558 188.736 190.598 188.736C195.59 188.736 199.982 189.84 203.774 192.048C207.566 194.256 210.518 197.328 212.63 201.264C214.742 205.152 215.798 209.664 215.798 214.8C215.798 219.936 214.742 224.472 212.63 228.408C210.518 232.296 207.566 235.344 203.774 237.552C199.982 239.76 195.59 240.864 190.598 240.864ZM190.598 232.584C195.398 232.584 199.214 231 202.046 227.832C204.926 224.664 206.366 220.32 206.366 214.8C206.366 209.28 204.926 204.936 202.046 201.768C199.214 198.6 195.398 197.016 190.598 197.016C185.798 197.016 181.958 198.6 179.078 201.768C176.198 204.936 174.758 209.28 174.758 214.8C174.758 220.32 176.198 224.664 179.078 227.832C181.958 231 185.798 232.584 190.598 232.584ZM223.935 240V189.6H234.879L250.935 221.568L266.775 189.6H277.719V240H268.503V205.224L254.463 232.8H247.191L233.151 205.224V240H223.935ZM287.498 240V189.6H296.714V240H287.498ZM306.482 240V189.6H315.698L339.386 225.096V189.6H348.602V240H339.386L315.698 204.576V240H306.482ZM380.405 240.864C375.653 240.864 371.501 239.784 367.949 237.624C364.397 235.464 361.637 232.464 359.669 228.624C357.701 224.736 356.717 220.224 356.717 215.088C356.717 209.904 357.725 205.344 359.741 201.408C361.805 197.424 364.709 194.328 368.453 192.12C372.245 189.864 376.733 188.736 381.917 188.736C387.821 188.736 392.717 190.152 396.605 192.984C400.493 195.816 403.013 199.728 404.165 204.72H393.869C393.101 202.368 391.709 200.544 389.693 199.248C387.677 197.904 385.085 197.232 381.917 197.232C376.877 197.232 372.989 198.84 370.253 202.056C367.517 205.224 366.149 209.592 366.149 215.16C366.149 220.728 367.493 225.048 370.181 228.12C372.917 231.144 376.613 232.656 381.269 232.656C385.829 232.656 389.261 231.432 391.565 228.984C393.917 226.488 395.333 223.224 395.813 219.192H383.069V212.28H405.101V240H396.605L395.885 233.376C394.253 235.776 392.213 237.624 389.765 238.92C387.317 240.216 384.197 240.864 380.405 240.864ZM448.424 240.864C444.728 240.864 441.464 240.24 438.632 238.992C435.8 237.696 433.568 235.872 431.936 233.52C430.304 231.12 429.464 228.216 429.416 224.808H439.136C439.232 227.16 440.072 229.152 441.656 230.784C443.288 232.368 445.52 233.16 448.352 233.16C450.8 233.16 452.744 232.584 454.184 231.432C455.624 230.232 456.344 228.648 456.344 226.68C456.344 224.616 455.696 223.008 454.4 221.856C453.152 220.704 451.472 219.768 449.36 219.048C447.248 218.328 444.992 217.56 442.592 216.744C438.704 215.4 435.728 213.672 433.664 211.56C431.648 209.448 430.64 206.64 430.64 203.136C430.592 200.16 431.288 197.616 432.728 195.504C434.216 193.344 436.232 191.688 438.776 190.536C441.32 189.336 444.248 188.736 447.56 188.736C450.92 188.736 453.872 189.336 456.416 190.536C459.008 191.736 461.024 193.416 462.464 195.576C463.952 197.736 464.744 200.304 464.84 203.28H454.976C454.928 201.504 454.232 199.944 452.888 198.6C451.592 197.208 449.768 196.512 447.416 196.512C445.4 196.464 443.696 196.968 442.304 198.024C440.96 199.032 440.288 200.52 440.288 202.488C440.288 204.168 440.816 205.512 441.872 206.52C442.928 207.48 444.368 208.296 446.192 208.968C448.016 209.64 450.104 210.36 452.456 211.128C454.952 211.992 457.232 213 459.296 214.152C461.36 215.304 463.016 216.84 464.264 218.76C465.512 220.632 466.136 223.056 466.136 226.032C466.136 228.672 465.464 231.12 464.12 233.376C462.776 235.632 460.784 237.456 458.144 238.848C455.504 240.192 452.264 240.864 448.424 240.864ZM497.793 240.864C492.753 240.864 488.337 239.76 484.545 237.552C480.801 235.344 477.849 232.296 475.689 228.408C473.577 224.472 472.521 219.936 472.521 214.8C472.521 209.664 473.577 205.152 475.689 201.264C477.849 197.328 480.801 194.256 484.545 192.048C488.337 189.84 492.753 188.736 497.793 188.736C502.785 188.736 507.177 189.84 510.969 192.048C514.761 194.256 517.713 197.328 519.825 201.264C521.937 205.152 522.993 209.664 522.993 214.8C522.993 219.936 521.937 224.472 519.825 228.408C517.713 232.296 514.761 235.344 510.969 237.552C507.177 239.76 502.785 240.864 497.793 240.864ZM497.793 232.584C502.593 232.584 506.409 231 509.241 227.832C512.121 224.664 513.561 220.32 513.561 214.8C513.561 209.28 512.121 204.936 509.241 201.768C506.409 198.6 502.593 197.016 497.793 197.016C492.993 197.016 489.153 198.6 486.273 201.768C483.393 204.936 481.953 209.28 481.953 214.8C481.953 220.32 483.393 224.664 486.273 227.832C489.153 231 492.993 232.584 497.793 232.584ZM554.746 240.864C549.706 240.864 545.29 239.76 541.498 237.552C537.754 235.344 534.802 232.296 532.642 228.408C530.53 224.472 529.474 219.936 529.474 214.8C529.474 209.664 530.53 205.152 532.642 201.264C534.802 197.328 537.754 194.256 541.498 192.048C545.29 189.84 549.706 188.736 554.746 188.736C559.738 188.736 564.13 189.84 567.922 192.048C571.714 194.256 574.666 197.328 576.778 201.264C578.89 205.152 579.946 209.664 579.946 214.8C579.946 219.936 578.89 224.472 576.778 228.408C574.666 232.296 571.714 235.344 567.922 237.552C564.13 239.76 559.738 240.864 554.746 240.864ZM554.746 232.584C559.546 232.584 563.362 231 566.194 227.832C569.074 224.664 570.514 220.32 570.514 214.8C570.514 209.28 569.074 204.936 566.194 201.768C563.362 198.6 559.546 197.016 554.746 197.016C549.946 197.016 546.106 198.6 543.226 201.768C540.346 204.936 538.906 209.28 538.906 214.8C538.906 220.32 540.346 224.664 543.226 227.832C546.106 231 549.946 232.584 554.746 232.584ZM588.084 240V189.6H597.3L620.988 225.096V189.6H630.204V240H620.988L597.3 204.576V240H588.084Z" fill="#DCDCDD"/>
<path d="M113.896 334V283.6H123.112V334H113.896ZM132.88 334V283.6H142.096L165.784 319.096V283.6H175V334H165.784L142.096 298.576V334H132.88ZM212.151 334L198.831 283.6H208.695L217.767 323.704L228.423 283.6H238.575L248.943 323.704L258.015 283.6H267.951L254.271 334H243.327L233.319 296.632L223.023 334H212.151ZM274.63 334V283.6H307.534V291.016H283.846V304.84H305.374V312.04H283.846V326.584H307.534V334H274.63ZM316.255 334V283.6H336.487C341.719 283.6 345.703 284.824 348.439 287.272C351.223 289.672 352.615 292.768 352.615 296.56C352.615 299.728 351.751 302.272 350.023 304.192C348.343 306.064 346.279 307.336 343.831 308.008C346.711 308.584 349.087 310.024 350.959 312.328C352.831 314.584 353.767 317.224 353.767 320.248C353.767 324.232 352.327 327.52 349.447 330.112C346.567 332.704 342.487 334 337.207 334H316.255ZM325.471 304.768H335.119C337.711 304.768 339.703 304.168 341.095 302.968C342.487 301.768 343.183 300.064 343.183 297.856C343.183 295.744 342.487 294.088 341.095 292.888C339.751 291.64 337.711 291.016 334.975 291.016H325.471V304.768ZM325.471 326.512H335.767C338.503 326.512 340.615 325.888 342.103 324.64C343.639 323.344 344.407 321.544 344.407 319.24C344.407 316.888 343.615 315.04 342.031 313.696C340.447 312.352 338.311 311.68 335.623 311.68H325.471V326.512ZM378.885 334.864C375.189 334.864 371.925 334.24 369.093 332.992C366.261 331.696 364.029 329.872 362.397 327.52C360.765 325.12 359.925 322.216 359.877 318.808H369.597C369.693 321.16 370.533 323.152 372.117 324.784C373.749 326.368 375.981 327.16 378.813 327.16C381.261 327.16 383.205 326.584 384.645 325.432C386.085 324.232 386.805 322.648 386.805 320.68C386.805 318.616 386.157 317.008 384.861 315.856C383.613 314.704 381.933 313.768 379.821 313.048C377.709 312.328 375.453 311.56 373.053 310.744C369.165 309.4 366.189 307.672 364.125 305.56C362.109 303.448 361.101 300.64 361.101 297.136C361.053 294.16 361.749 291.616 363.189 289.504C364.677 287.344 366.693 285.688 369.237 284.536C371.781 283.336 374.709 282.736 378.021 282.736C381.381 282.736 384.333 283.336 386.877 284.536C389.469 285.736 391.485 287.416 392.925 289.576C394.413 291.736 395.205 294.304 395.301 297.28H385.437C385.389 295.504 384.693 293.944 383.349 292.6C382.053 291.208 380.229 290.512 377.877 290.512C375.861 290.464 374.157 290.968 372.765 292.024C371.421 293.032 370.749 294.52 370.749 296.488C370.749 298.168 371.277 299.512 372.333 300.52C373.389 301.48 374.829 302.296 376.653 302.968C378.477 303.64 380.565 304.36 382.917 305.128C385.413 305.992 387.693 307 389.757 308.152C391.821 309.304 393.477 310.84 394.725 312.76C395.973 314.632 396.597 317.056 396.597 320.032C396.597 322.672 395.925 325.12 394.581 327.376C393.237 329.632 391.245 331.456 388.605 332.848C385.965 334.192 382.725 334.864 378.885 334.864ZM404.638 334V283.6H413.854V334H404.638ZM435.359 334V291.016H420.671V283.6H459.335V291.016H444.575V334H435.359ZM466.162 334V283.6H499.066V291.016H475.378V304.84H496.906V312.04H475.378V326.584H499.066V334H466.162Z" fill="#19A180"/>
<ellipse cx="190" cy="656.264" rx="97" ry="68" fill="#C5C3C6"/>
<ellipse cx="306" cy="643.264" rx="62" ry="64" fill="#C5C3C6"/>
<ellipse cx="246" cy="593.764" rx="29" ry="27.5" fill="#C5C3C6"/>
<ellipse cx="87.0002" cy="651.764" rx="39" ry="61.5" fill="#C5C3C6"/>
<ellipse cx="37" cy="671.5" rx="37" ry="32.5" fill="#C5C3C6"/>
<ellipse cx="456" cy="678.264" rx="97" ry="68" fill="#C5C3C6"/>
<ellipse cx="572" cy="665.264" rx="62" ry="64" fill="#C5C3C6"/>
<ellipse cx="512" cy="615.764" rx="29" ry="27.5" fill="#C5C3C6"/>
<ellipse cx="353" cy="673.764" rx="39" ry="61.5" fill="#C5C3C6"/>
<ellipse cx="292" cy="696.764" rx="37" ry="32.5" fill="#C5C3C6"/>
<ellipse cx="763.987" cy="673.157" rx="97" ry="68" transform="rotate(-177.667 763.987 673.157)" fill="#C5C3C6"/>
<ellipse cx="647.554" cy="681.423" rx="62" ry="64" transform="rotate(-177.667 647.554 681.423)" fill="#C5C3C6"/>
<ellipse cx="866.719" cy="681.846" rx="39" ry="61.5" transform="rotate(-177.667 866.719 681.846)" fill="#C5C3C6"/>
<ellipse cx="928.605" cy="661.349" rx="37" ry="32.5" transform="rotate(-177.667 928.605 661.349)" fill="#C5C3C6"/>
<ellipse cx="1011.99" cy="651.157" rx="97" ry="68" transform="rotate(-177.667 1011.99 651.157)" fill="#C5C3C6"/>
<ellipse cx="895.554" cy="659.423" rx="62" ry="64" transform="rotate(-177.667 895.554 659.423)" fill="#C5C3C6"/>
<ellipse cx="953.49" cy="711.325" rx="29" ry="27.5" transform="rotate(-177.667 953.49 711.325)" fill="#C5C3C6"/>
<ellipse cx="1114.72" cy="659.846" rx="39" ry="61.5" transform="rotate(-177.667 1114.72 659.846)" fill="#C5C3C6"/>
<ellipse cx="1176.6" cy="639.349" rx="37" ry="32.5" transform="rotate(-177.667 1176.6 639.349)" fill="#C5C3C6"/>
<ellipse cx="1272.13" cy="663.148" rx="97" ry="68" transform="rotate(-164.438 1272.13 663.148)" fill="#C5C3C6"/>
<ellipse cx="1156.9" cy="644.551" rx="62" ry="64" transform="rotate(-164.438 1156.9 644.551)" fill="#C5C3C6"/>
<ellipse cx="1201.42" cy="708.333" rx="29" ry="27.5" transform="rotate(-164.438 1201.42 708.333)" fill="#C5C3C6"/>
<ellipse cx="1370.15" cy="695.117" rx="39" ry="61.5" transform="rotate(-164.438 1370.15 695.117)" fill="#C5C3C6"/>
<ellipse cx="56.7189" cy="675.846" rx="39" ry="61.5" transform="rotate(-177.667 56.7189 675.846)" fill="#C5C3C6"/>
<ellipse cx="118.605" cy="655.349" rx="37" ry="32.5" transform="rotate(-177.667 118.605 655.349)" fill="#C5C3C6"/>
<circle cx="120.5" cy="700.764" r="40.5" fill="#C5C3C6"/>
<circle cx="327.5" cy="683.764" r="40.5" fill="#C5C3C6"/>
<circle cx="541.5" cy="698.764" r="40.5" fill="#C5C3C6"/>
<circle cx="809.5" cy="706.764" r="40.5" fill="#C5C3C6"/>
<circle cx="246.5" cy="707.764" r="40.5" fill="#C5C3C6"/>
<circle cx="1050.5" cy="688.764" r="40.5" fill="#C5C3C6"/>
<circle cx="1283.5" cy="707.764" r="40.5" fill="#C5C3C6"/>
<ellipse cx="190" cy="625.264" rx="97" ry="68" fill="#DCDCDD"/>
<ellipse cx="306" cy="612.264" rx="62" ry="64" fill="#DCDCDD"/>
<ellipse cx="246" cy="562.764" rx="29" ry="27.5" fill="#DCDCDD"/>
<ellipse cx="87.0002" cy="620.764" rx="39" ry="61.5" fill="#DCDCDD"/>
<ellipse cx="456" cy="647.264" rx="97" ry="68" fill="#DCDCDD"/>
<ellipse cx="572" cy="634.264" rx="62" ry="64" fill="#DCDCDD"/>
<ellipse cx="512" cy="584.764" rx="29" ry="27.5" fill="#DCDCDD"/>
<ellipse cx="353" cy="642.764" rx="39" ry="61.5" fill="#DCDCDD"/>
<ellipse cx="292" cy="665.764" rx="37" ry="32.5" fill="#DCDCDD"/>
<ellipse cx="763.987" cy="642.157" rx="97" ry="68" transform="rotate(-177.667 763.987 642.157)" fill="#DCDCDD"/>
<ellipse cx="647.554" cy="650.423" rx="62" ry="64" transform="rotate(-177.667 647.554 650.423)" fill="#DCDCDD"/>
<ellipse cx="705.49" cy="702.325" rx="29" ry="27.5" transform="rotate(-177.667 705.49 702.325)" fill="#DCDCDD"/>
<ellipse cx="866.719" cy="650.846" rx="39" ry="61.5" transform="rotate(-177.667 866.719 650.846)" fill="#DCDCDD"/>
<ellipse cx="928.605" cy="630.349" rx="37" ry="32.5" transform="rotate(-177.667 928.605 630.349)" fill="#DCDCDD"/>
<ellipse cx="1011.99" cy="620.157" rx="97" ry="68" transform="rotate(-177.667 1011.99 620.157)" fill="#DCDCDD"/>
<ellipse cx="895.554" cy="628.423" rx="62" ry="64" transform="rotate(-177.667 895.554 628.423)" fill="#DCDCDD"/>
<ellipse cx="953.49" cy="680.325" rx="29" ry="27.5" transform="rotate(-177.667 953.49 680.325)" fill="#DCDCDD"/>
<ellipse cx="1114.72" cy="628.846" rx="39" ry="61.5" transform="rotate(-177.667 1114.72 628.846)" fill="#DCDCDD"/>
<ellipse cx="1176.6" cy="608.349" rx="37" ry="32.5" transform="rotate(-177.667 1176.6 608.349)" fill="#DCDCDD"/>
<ellipse cx="1272.13" cy="632.148" rx="97" ry="68" transform="rotate(-164.438 1272.13 632.148)" fill="#DCDCDD"/>
<ellipse cx="1156.9" cy="613.551" rx="62" ry="64" transform="rotate(-164.438 1156.9 613.551)" fill="#DCDCDD"/>
<ellipse cx="1201.42" cy="677.333" rx="29" ry="27.5" transform="rotate(-164.438 1201.42 677.333)" fill="#DCDCDD"/>
<ellipse cx="1370.15" cy="664.117" rx="39" ry="61.5" transform="rotate(-164.438 1370.15 664.117)" fill="#DCDCDD"/>
<ellipse cx="45.4714" cy="650.037" rx="39" ry="61.5" transform="rotate(-177.667 45.4714 650.037)" fill="#DCDCDD"/>
<ellipse cx="118.605" cy="624.349" rx="37" ry="32.5" transform="rotate(-177.667 118.605 624.349)" fill="#DCDCDD"/>
<circle cx="120.5" cy="669.764" r="40.5" fill="#DCDCDD"/>
<circle cx="327.5" cy="652.764" r="40.5" fill="#DCDCDD"/>
<circle cx="541.5" cy="667.764" r="40.5" fill="#DCDCDD"/>
<circle cx="809.5" cy="675.764" r="40.5" fill="#DCDCDD"/>
<circle cx="246.5" cy="676.764" r="40.5" fill="#DCDCDD"/>
<circle cx="1050.5" cy="657.764" r="40.5" fill="#DCDCDD"/>
<circle cx="1283.5" cy="676.764" r="40.5" fill="#DCDCDD"/>
<circle cx="684" cy="552.264" r="10" fill="#DCDCDD"/>
<circle cx="850" cy="547.264" r="5" fill="#DCDCDD"/>
<circle cx="620" cy="580.264" r="5" fill="#DCDCDD"/>
<circle cx="332" cy="543.264" r="5" fill="#DCDCDD"/>
<circle cx="779" cy="516.264" r="10" fill="#DCDCDD"/>
<circle cx="1370" cy="594.264" r="10" fill="#DCDCDD"/>
<circle cx="292" cy="507.264" r="10" fill="#DCDCDD"/>
<circle cx="402" cy="571.264" r="10" fill="#DCDCDD"/>
<circle cx="44" cy="635.264" r="10" fill="#DCDCDD"/>
<circle cx="828" cy="562.264" r="10" fill="#DCDCDD"/>
<circle cx="556" cy="547.264" r="10" fill="#DCDCDD"/>
<circle cx="124" cy="557.264" r="5" fill="#DCDCDD"/>
<defs>
<clipPath id="clip0_0_1">
<rect width="522" height="478" fill="white" transform="translate(911.202) rotate(21.2199)"/>
</clipPath>
</defs>
</svg>
