<svg width="648" height="471" viewBox="0 0 648 471" fill="none" xmlns="http://www.w3.org/2000/svg">
<g clip-path="url(#clip0_68_59)">
<path d="M377.459 83.0318C389.604 83.0318 399.449 73.1927 399.449 61.0556C399.449 48.9185 389.604 39.0794 377.459 39.0794C365.314 39.0794 355.469 48.9185 355.469 61.0556C355.469 73.1927 365.314 83.0318 377.459 83.0318Z" fill="#F5B57A"/>
<path d="M548.041 409.184C580.727 384.304 596.338 342.495 586.565 302.612C586.322 301.622 586.066 300.633 585.796 299.646C579.317 275.973 563.287 253.472 539.923 245.908C520.306 239.557 498.893 244.441 478.428 241.915C438.253 236.957 407.107 204.471 385.191 170.458C363.275 136.445 346.432 98.3719 317.311 70.2721C269.31 23.9544 191.007 13.9821 131.492 44.1315C71.9772 74.281 34.0668 141.17 35.6835 207.833C37.3004 274.497 76.9001 338.232 134.409 372.047C155.535 384.469 179.97 393.27 204.287 390.19C225.387 387.518 244.559 376.188 265.559 372.824C298.577 367.535 331.385 382.455 359.943 399.84C388.5 417.225 416.085 437.832 448.537 445.892C480.048 453.718 519.087 431.223 548.041 409.184Z" fill="#19A180"/>
<path d="M501.08 45.5314C500.364 45.054 499.639 44.6014 498.923 44.1404C478.211 30.9022 456.011 20.1476 432.782 12.0989L427.396 86.355H393.251V1.25924C391.101 0.814794 388.935 0.395036 386.769 -3.05176e-05V86.355H346.192C323.854 86.355 302.43 77.4867 286.635 61.701C270.839 45.9154 261.966 24.5054 261.966 2.18116V2.18109C259.791 2.65023 257.634 3.15229 255.476 3.68728V86.355H222.426L217.295 15.5475C193.424 24.6968 170.761 36.7286 149.812 51.3751C149.45 51.622 149.087 51.8772 148.733 52.1241C146.913 53.3998 145.118 54.7003 143.331 56.0172V339.305H240.734L239.013 315.477L229.542 184.653H420.272L410.801 315.477L409.08 339.305H505.404V48.3957C503.971 47.4245 502.53 46.4697 501.08 45.5314ZM255.476 163.047H227.977L222.896 92.8406H255.476V163.047ZM386.769 163.047H340.583V161.656C340.583 160.988 340.452 160.326 340.195 159.708C339.939 159.09 339.563 158.529 339.09 158.057C338.616 157.584 338.054 157.21 337.436 156.955C336.817 156.699 336.155 156.569 335.486 156.57H315.407C314.739 156.57 314.077 156.701 313.459 156.956C312.841 157.212 312.28 157.587 311.807 158.059C311.335 158.531 310.96 159.092 310.704 159.709C310.449 160.327 310.317 160.988 310.317 161.656V163.047H261.966V92.8406H386.769V163.047ZM393.251 163.047V92.8406H426.926L421.845 163.047H393.251Z" fill="#3F3D56"/>
<path d="M0 357.446C7.15455 365.918 14.893 373.88 23.1587 381.273L624.841 382.096C633.107 374.703 640.845 366.741 648 358.269L0 357.446Z" fill="#3F3D56"/>
<path d="M408.02 281.149V351.688C408.021 352.587 408.379 353.449 409.015 354.084C409.651 354.72 410.513 355.077 411.413 355.078H516.01C516.909 355.077 517.772 354.72 518.408 354.084C519.044 353.449 519.401 352.587 519.402 351.688V281.149C519.4 280.251 519.042 279.39 518.406 278.755C517.77 278.12 516.908 277.763 516.01 277.762H411.413C410.514 277.763 409.652 278.12 409.017 278.755C408.381 279.39 408.023 280.251 408.02 281.149V281.149Z" fill="#3F3D56"/>
<path d="M410.474 282.026V350.818C410.475 351.298 410.666 351.758 411.006 352.098C411.346 352.438 411.807 352.629 412.287 352.63H515.139C515.619 352.629 516.08 352.438 516.42 352.098C516.76 351.758 516.951 351.298 516.952 350.818V282.026C516.952 281.545 516.761 281.084 516.421 280.744C516.081 280.403 515.62 280.212 515.139 280.211H412.287C411.806 280.212 411.345 280.403 411.005 280.744C410.665 281.084 410.474 281.545 410.474 282.026V282.026Z" fill="#19A180"/>
<path d="M405.833 365.445C406.024 365.685 406.268 365.879 406.545 366.011C406.822 366.144 407.126 366.212 407.433 366.21H519.432C519.738 366.21 520.041 366.141 520.317 366.009C520.593 365.877 520.837 365.686 521.03 365.448C521.223 365.21 521.36 364.933 521.432 364.635C521.505 364.337 521.509 364.028 521.446 363.728L519.708 355.475C519.636 355.139 519.481 354.825 519.257 354.564C519.032 354.303 518.746 354.102 518.425 353.979C518.192 353.888 517.944 353.841 517.693 353.841H409.165C408.915 353.841 408.667 353.888 408.434 353.979C408.112 354.102 407.826 354.303 407.602 354.564C407.378 354.825 407.223 355.139 407.15 355.475L405.412 363.728C405.35 364.028 405.356 364.337 405.429 364.634C405.501 364.931 405.639 365.208 405.833 365.445V365.445Z" fill="#2F2E41"/>
<path d="M513.851 357.396H516.496C516.718 357.396 516.898 357.216 516.898 356.994V355.729C516.898 355.507 516.718 355.327 516.496 355.327H513.851C513.628 355.327 513.448 355.507 513.448 355.729V356.994C513.448 357.216 513.628 357.396 513.851 357.396Z" fill="#3F3D56"/>
<path d="M506.952 357.396H509.597C509.819 357.396 509.999 357.216 509.999 356.994V355.729C509.999 355.507 509.819 355.327 509.597 355.327H506.952C506.73 355.327 506.55 355.507 506.55 355.729V356.994C506.55 357.216 506.73 357.396 506.952 357.396Z" fill="#3F3D56"/>
<path d="M500.053 357.396H502.698C502.92 357.396 503.1 357.216 503.1 356.994V355.729C503.1 355.507 502.92 355.327 502.698 355.327H500.053C499.831 355.327 499.65 355.507 499.65 355.729V356.994C499.65 357.216 499.831 357.396 500.053 357.396Z" fill="#3F3D56"/>
<path d="M493.154 357.396H495.799C496.021 357.396 496.201 357.216 496.201 356.994V355.729C496.201 355.507 496.021 355.327 495.799 355.327H493.154C492.932 355.327 492.752 355.507 492.752 355.729V356.994C492.752 357.216 492.932 357.396 493.154 357.396Z" fill="#3F3D56"/>
<path d="M486.255 357.396H488.9C489.122 357.396 489.302 357.216 489.302 356.994V355.729C489.302 355.507 489.122 355.327 488.9 355.327H486.255C486.033 355.327 485.853 355.507 485.853 355.729V356.994C485.853 357.216 486.033 357.396 486.255 357.396Z" fill="#3F3D56"/>
<path d="M479.356 357.396H482.001C482.223 357.396 482.403 357.216 482.403 356.994V355.729C482.403 355.507 482.223 355.327 482.001 355.327H479.356C479.134 355.327 478.954 355.507 478.954 355.729V356.994C478.954 357.216 479.134 357.396 479.356 357.396Z" fill="#3F3D56"/>
<path d="M472.456 357.396H475.102C475.324 357.396 475.504 357.216 475.504 356.994V355.729C475.504 355.507 475.324 355.327 475.102 355.327H472.456C472.234 355.327 472.054 355.507 472.054 355.729V356.994C472.054 357.216 472.234 357.396 472.456 357.396Z" fill="#3F3D56"/>
<path d="M465.558 357.396H468.203C468.425 357.396 468.605 357.216 468.605 356.994V355.729C468.605 355.507 468.425 355.327 468.203 355.327H465.558C465.335 355.327 465.155 355.507 465.155 355.729V356.994C465.155 357.216 465.335 357.396 465.558 357.396Z" fill="#3F3D56"/>
<path d="M458.658 357.396H461.304C461.526 357.396 461.706 357.216 461.706 356.994V355.729C461.706 355.507 461.526 355.327 461.304 355.327H458.658C458.436 355.327 458.256 355.507 458.256 355.729V356.994C458.256 357.216 458.436 357.396 458.658 357.396Z" fill="#3F3D56"/>
<path d="M451.759 357.396H454.405C454.627 357.396 454.807 357.216 454.807 356.994V355.729C454.807 355.507 454.627 355.327 454.405 355.327H451.759C451.537 355.327 451.357 355.507 451.357 355.729V356.994C451.357 357.216 451.537 357.396 451.759 357.396Z" fill="#3F3D56"/>
<path d="M444.86 357.396H447.506C447.728 357.396 447.908 357.216 447.908 356.994V355.729C447.908 355.507 447.728 355.327 447.506 355.327H444.86C444.638 355.327 444.458 355.507 444.458 355.729V356.994C444.458 357.216 444.638 357.396 444.86 357.396Z" fill="#3F3D56"/>
<path d="M437.961 357.396H440.607C440.829 357.396 441.009 357.216 441.009 356.994V355.729C441.009 355.507 440.829 355.327 440.607 355.327H437.961C437.739 355.327 437.559 355.507 437.559 355.729V356.994C437.559 357.216 437.739 357.396 437.961 357.396Z" fill="#3F3D56"/>
<path d="M431.062 357.396H433.708C433.93 357.396 434.11 357.216 434.11 356.994V355.729C434.11 355.507 433.93 355.327 433.708 355.327H431.062C430.84 355.327 430.66 355.507 430.66 355.729V356.994C430.66 357.216 430.84 357.396 431.062 357.396Z" fill="#3F3D56"/>
<path d="M424.163 357.396H426.809C427.031 357.396 427.211 357.216 427.211 356.994V355.729C427.211 355.507 427.031 355.327 426.809 355.327H424.163C423.941 355.327 423.761 355.507 423.761 355.729V356.994C423.761 357.216 423.941 357.396 424.163 357.396Z" fill="#3F3D56"/>
<path d="M417.264 357.396H419.91C420.132 357.396 420.312 357.216 420.312 356.994V355.729C420.312 355.507 420.132 355.327 419.91 355.327H417.264C417.042 355.327 416.862 355.507 416.862 355.729V356.994C416.862 357.216 417.042 357.396 417.264 357.396Z" fill="#3F3D56"/>
<path d="M410.365 357.396H413.011C413.233 357.396 413.413 357.216 413.413 356.994V355.729C413.413 355.507 413.233 355.327 413.011 355.327H410.365C410.143 355.327 409.963 355.507 409.963 355.729V356.994C409.963 357.216 410.143 357.396 410.365 357.396Z" fill="#3F3D56"/>
<path d="M513.932 360.843H516.577C516.799 360.843 516.979 360.663 516.979 360.441V359.177C516.979 358.955 516.799 358.775 516.577 358.775H513.932C513.71 358.775 513.53 358.955 513.53 359.177V360.441C513.53 360.663 513.71 360.843 513.932 360.843Z" fill="#3F3D56"/>
<path d="M507.033 360.843H509.679C509.901 360.843 510.081 360.663 510.081 360.441V359.177C510.081 358.955 509.901 358.775 509.679 358.775H507.033C506.811 358.775 506.631 358.955 506.631 359.177V360.441C506.631 360.663 506.811 360.843 507.033 360.843Z" fill="#3F3D56"/>
<path d="M500.134 360.843H502.78C503.002 360.843 503.182 360.663 503.182 360.441V359.177C503.182 358.955 503.002 358.775 502.78 358.775H500.134C499.912 358.775 499.732 358.955 499.732 359.177V360.441C499.732 360.663 499.912 360.843 500.134 360.843Z" fill="#3F3D56"/>
<path d="M493.235 360.843H495.88C496.102 360.843 496.282 360.663 496.282 360.441V359.177C496.282 358.955 496.102 358.775 495.88 358.775H493.235C493.013 358.775 492.833 358.955 492.833 359.177V360.441C492.833 360.663 493.013 360.843 493.235 360.843Z" fill="#3F3D56"/>
<path d="M486.336 360.843H488.982C489.204 360.843 489.384 360.663 489.384 360.441V359.177C489.384 358.955 489.204 358.775 488.982 358.775H486.336C486.114 358.775 485.934 358.955 485.934 359.177V360.441C485.934 360.663 486.114 360.843 486.336 360.843Z" fill="#3F3D56"/>
<path d="M479.437 360.843H482.082C482.305 360.843 482.484 360.663 482.484 360.441V359.177C482.484 358.955 482.305 358.775 482.082 358.775H479.437C479.215 358.775 479.035 358.955 479.035 359.177V360.441C479.035 360.663 479.215 360.843 479.437 360.843Z" fill="#3F3D56"/>
<path d="M472.538 360.843H475.183C475.405 360.843 475.585 360.663 475.585 360.441V359.177C475.585 358.955 475.405 358.775 475.183 358.775H472.538C472.316 358.775 472.136 358.955 472.136 359.177V360.441C472.136 360.663 472.316 360.843 472.538 360.843Z" fill="#3F3D56"/>
<path d="M465.639 360.843H468.284C468.506 360.843 468.687 360.663 468.687 360.441V359.177C468.687 358.955 468.506 358.775 468.284 358.775H465.639C465.417 358.775 465.237 358.955 465.237 359.177V360.441C465.237 360.663 465.417 360.843 465.639 360.843Z" fill="#3F3D56"/>
<path d="M458.74 360.843H461.385C461.607 360.843 461.787 360.663 461.787 360.441V359.177C461.787 358.955 461.607 358.775 461.385 358.775H458.74C458.518 358.775 458.338 358.955 458.338 359.177V360.441C458.338 360.663 458.518 360.843 458.74 360.843Z" fill="#3F3D56"/>
<path d="M451.841 360.843H454.486C454.708 360.843 454.888 360.663 454.888 360.441V359.177C454.888 358.955 454.708 358.775 454.486 358.775H451.841C451.619 358.775 451.439 358.955 451.439 359.177V360.441C451.439 360.663 451.619 360.843 451.841 360.843Z" fill="#3F3D56"/>
<path d="M444.942 360.843H447.587C447.809 360.843 447.989 360.663 447.989 360.441V359.177C447.989 358.955 447.809 358.775 447.587 358.775H444.942C444.72 358.775 444.54 358.955 444.54 359.177V360.441C444.54 360.663 444.72 360.843 444.942 360.843Z" fill="#3F3D56"/>
<path d="M438.043 360.843H440.688C440.91 360.843 441.09 360.663 441.09 360.441V359.177C441.09 358.955 440.91 358.775 440.688 358.775H438.043C437.821 358.775 437.641 358.955 437.641 359.177V360.441C437.641 360.663 437.821 360.843 438.043 360.843Z" fill="#3F3D56"/>
<path d="M431.144 360.843H433.789C434.011 360.843 434.191 360.663 434.191 360.441V359.177C434.191 358.955 434.011 358.775 433.789 358.775H431.144C430.922 358.775 430.742 358.955 430.742 359.177V360.441C430.742 360.663 430.922 360.843 431.144 360.843Z" fill="#3F3D56"/>
<path d="M424.245 360.843H426.89C427.112 360.843 427.292 360.663 427.292 360.441V359.177C427.292 358.955 427.112 358.775 426.89 358.775H424.245C424.023 358.775 423.843 358.955 423.843 359.177V360.441C423.843 360.663 424.023 360.843 424.245 360.843Z" fill="#3F3D56"/>
<path d="M417.346 360.843H419.991C420.213 360.843 420.393 360.663 420.393 360.441V359.177C420.393 358.955 420.213 358.775 419.991 358.775H417.346C417.124 358.775 416.944 358.955 416.944 359.177V360.441C416.944 360.663 417.124 360.843 417.346 360.843Z" fill="#3F3D56"/>
<path d="M410.447 360.843H413.092C413.314 360.843 413.494 360.663 413.494 360.441V359.177C413.494 358.955 413.314 358.775 413.092 358.775H410.447C410.225 358.775 410.045 358.955 410.045 359.177V360.441C410.045 360.663 410.225 360.843 410.447 360.843Z" fill="#3F3D56"/>
<path d="M456.67 364.98H483.462C483.684 364.98 483.864 364.8 483.864 364.578V363.313C483.864 363.091 483.684 362.912 483.462 362.912H456.67C456.448 362.912 456.268 363.091 456.268 363.313V364.578C456.268 364.8 456.448 364.98 456.67 364.98Z" fill="#3F3D56"/>
<path d="M428.285 295.261H425.943C425.233 295.261 424.657 295.836 424.657 296.545C424.657 297.255 425.233 297.83 425.943 297.83H428.285C428.995 297.83 429.571 297.255 429.571 296.545C429.571 295.836 428.995 295.261 428.285 295.261Z" fill="white"/>
<path d="M455.07 295.261H452.728C452.018 295.261 451.442 295.836 451.442 296.545C451.442 297.255 452.018 297.83 452.728 297.83H455.07C455.78 297.83 456.356 297.255 456.356 296.545C456.356 295.836 455.78 295.261 455.07 295.261Z" fill="white"/>
<path d="M462.659 295.261H460.317C459.607 295.261 459.031 295.836 459.031 296.545C459.031 297.255 459.607 297.83 460.317 297.83H462.659C463.369 297.83 463.945 297.255 463.945 296.545C463.945 295.836 463.369 295.261 462.659 295.261Z" fill="white"/>
<path d="M447.784 295.046H433.229C432.519 295.046 431.943 295.622 431.943 296.331C431.943 297.041 432.519 297.616 433.229 297.616H447.784C448.494 297.616 449.07 297.041 449.07 296.331C449.07 295.622 448.494 295.046 447.784 295.046Z" fill="white"/>
<path d="M483.498 295.046H468.942C468.232 295.046 467.656 295.622 467.656 296.331C467.656 297.041 468.232 297.616 468.942 297.616H483.498C484.208 297.616 484.783 297.041 484.783 296.331C484.783 295.622 484.208 295.046 483.498 295.046Z" fill="white"/>
<path d="M435.428 301.06H433.086C432.376 301.06 431.8 301.636 431.8 302.345C431.8 303.055 432.376 303.63 433.086 303.63H435.428C436.138 303.63 436.713 303.055 436.713 302.345C436.713 301.636 436.138 301.06 435.428 301.06Z" fill="white"/>
<path d="M462.213 301.06H459.871C459.161 301.06 458.585 301.636 458.585 302.345C458.585 303.055 459.161 303.63 459.871 303.63H462.213C462.923 303.63 463.498 303.055 463.498 302.345C463.498 301.636 462.923 301.06 462.213 301.06Z" fill="white"/>
<path d="M469.802 301.06H467.46C466.75 301.06 466.174 301.636 466.174 302.345C466.174 303.055 466.75 303.63 467.46 303.63H469.802C470.512 303.63 471.087 303.055 471.087 302.345C471.087 301.636 470.512 301.06 469.802 301.06Z" fill="white"/>
<path d="M454.927 300.846H440.371C439.661 300.846 439.086 301.421 439.086 302.131C439.086 302.841 439.661 303.416 440.371 303.416H454.927C455.637 303.416 456.213 302.841 456.213 302.131C456.213 301.421 455.637 300.846 454.927 300.846Z" fill="white"/>
<path d="M490.64 300.846H476.084C475.374 300.846 474.799 301.421 474.799 302.131C474.799 302.841 475.374 303.416 476.084 303.416H490.64C491.35 303.416 491.926 302.841 491.926 302.131C491.926 301.421 491.35 300.846 490.64 300.846Z" fill="white"/>
<path d="M442.57 306.86H440.228C439.518 306.86 438.943 307.435 438.943 308.145C438.943 308.855 439.518 309.43 440.228 309.43H442.57C443.28 309.43 443.856 308.855 443.856 308.145C443.856 307.435 443.28 306.86 442.57 306.86Z" fill="white"/>
<path d="M469.355 306.86H467.013C466.303 306.86 465.728 307.435 465.728 308.145C465.728 308.855 466.303 309.43 467.013 309.43H469.355C470.065 309.43 470.641 308.855 470.641 308.145C470.641 307.435 470.065 306.86 469.355 306.86Z" fill="white"/>
<path d="M476.944 306.86H474.602C473.892 306.86 473.317 307.435 473.317 308.145C473.317 308.855 473.892 309.43 474.602 309.43H476.944C477.654 309.43 478.23 308.855 478.23 308.145C478.23 307.435 477.654 306.86 476.944 306.86Z" fill="white"/>
<path d="M462.07 306.646H447.514C446.804 306.646 446.228 307.221 446.228 307.931C446.228 308.64 446.804 309.216 447.514 309.216H462.07C462.78 309.216 463.355 308.64 463.355 307.931C463.355 307.221 462.78 306.646 462.07 306.646Z" fill="white"/>
<path d="M497.783 306.646H483.227C482.517 306.646 481.942 307.221 481.942 307.931C481.942 308.64 482.517 309.216 483.227 309.216H497.783C498.493 309.216 499.069 308.64 499.069 307.931C499.069 307.221 498.493 306.646 497.783 306.646Z" fill="white"/>
<path d="M449.713 312.66H447.371C446.661 312.66 446.085 313.235 446.085 313.945C446.085 314.654 446.661 315.23 447.371 315.23H449.713C450.423 315.23 450.999 314.654 450.999 313.945C450.999 313.235 450.423 312.66 449.713 312.66Z" fill="white"/>
<path d="M476.498 312.66H474.156C473.446 312.66 472.87 313.235 472.87 313.945C472.87 314.654 473.446 315.23 474.156 315.23H476.498C477.208 315.23 477.784 314.654 477.784 313.945C477.784 313.235 477.208 312.66 476.498 312.66Z" fill="white"/>
<path d="M484.087 312.66H481.745C481.035 312.66 480.459 313.235 480.459 313.945C480.459 314.654 481.035 315.23 481.745 315.23H484.087C484.797 315.23 485.373 314.654 485.373 313.945C485.373 313.235 484.797 312.66 484.087 312.66Z" fill="white"/>
<path d="M469.212 312.446H454.657C453.947 312.446 453.371 313.021 453.371 313.731C453.371 314.44 453.947 315.015 454.657 315.015H469.212C469.922 315.015 470.498 314.44 470.498 313.731C470.498 313.021 469.922 312.446 469.212 312.446Z" fill="white"/>
<path d="M455.07 335.722H452.728C452.018 335.722 451.442 336.298 451.442 337.007C451.442 337.717 452.018 338.292 452.728 338.292H455.07C455.78 338.292 456.356 337.717 456.356 337.007C456.356 336.298 455.78 335.722 455.07 335.722Z" fill="white"/>
<path d="M462.659 335.722H460.317C459.607 335.722 459.031 336.298 459.031 337.007C459.031 337.717 459.607 338.292 460.317 338.292H462.659C463.369 338.292 463.945 337.717 463.945 337.007C463.945 336.298 463.369 335.722 462.659 335.722Z" fill="white"/>
<path d="M483.498 335.937H468.942C468.232 335.937 467.656 336.512 467.656 337.221C467.656 337.931 468.232 338.506 468.942 338.506H483.498C484.208 338.506 484.783 337.931 484.783 337.221C484.783 336.512 484.208 335.937 483.498 335.937Z" fill="white"/>
<path d="M428.285 335.722H425.943C425.233 335.722 424.657 336.298 424.657 337.007C424.657 337.717 425.233 338.292 425.943 338.292H428.285C428.995 338.292 429.571 337.717 429.571 337.007C429.571 336.298 428.995 335.722 428.285 335.722Z" fill="white"/>
<path d="M447.784 335.937H433.229C432.519 335.937 431.943 336.512 431.943 337.221C431.943 337.931 432.519 338.506 433.229 338.506H447.784C448.494 338.506 449.07 337.931 449.07 337.221C449.07 336.512 448.494 335.937 447.784 335.937Z" fill="white"/>
<path d="M435.428 329.923H433.086C432.376 329.923 431.8 330.498 431.8 331.207C431.8 331.917 432.376 332.492 433.086 332.492H435.428C436.138 332.492 436.713 331.917 436.713 331.207C436.713 330.498 436.138 329.923 435.428 329.923Z" fill="white"/>
<path d="M462.213 329.923H459.871C459.161 329.923 458.585 330.498 458.585 331.207C458.585 331.917 459.161 332.492 459.871 332.492H462.213C462.923 332.492 463.498 331.917 463.498 331.207C463.498 330.498 462.923 329.923 462.213 329.923Z" fill="white"/>
<path d="M469.802 329.923H467.46C466.75 329.923 466.174 330.498 466.174 331.207C466.174 331.917 466.75 332.492 467.46 332.492H469.802C470.512 332.492 471.087 331.917 471.087 331.207C471.087 330.498 470.512 329.923 469.802 329.923Z" fill="white"/>
<path d="M454.927 330.137H440.371C439.661 330.137 439.086 330.712 439.086 331.422C439.086 332.131 439.661 332.707 440.371 332.707H454.927C455.637 332.707 456.213 332.131 456.213 331.422C456.213 330.712 455.637 330.137 454.927 330.137Z" fill="white"/>
<path d="M442.57 324.123H440.228C439.518 324.123 438.943 324.698 438.943 325.408C438.943 326.117 439.518 326.693 440.228 326.693H442.57C443.28 326.693 443.856 326.117 443.856 325.408C443.856 324.698 443.28 324.123 442.57 324.123Z" fill="white"/>
<path d="M469.355 324.123H467.013C466.303 324.123 465.728 324.698 465.728 325.408C465.728 326.117 466.303 326.693 467.013 326.693H469.355C470.065 326.693 470.641 326.117 470.641 325.408C470.641 324.698 470.065 324.123 469.355 324.123Z" fill="white"/>
<path d="M476.944 324.123H474.602C473.892 324.123 473.317 324.698 473.317 325.408C473.317 326.117 473.892 326.693 474.602 326.693H476.944C477.654 326.693 478.23 326.117 478.23 325.408C478.23 324.698 477.654 324.123 476.944 324.123Z" fill="white"/>
<path d="M462.07 324.337H447.514C446.804 324.337 446.228 324.912 446.228 325.622C446.228 326.331 446.804 326.907 447.514 326.907H462.07C462.78 326.907 463.355 326.331 463.355 325.622C463.355 324.912 462.78 324.337 462.07 324.337Z" fill="white"/>
<path d="M449.713 318.323H447.371C446.661 318.323 446.085 318.898 446.085 319.608C446.085 320.317 446.661 320.893 447.371 320.893H449.713C450.423 320.893 450.999 320.317 450.999 319.608C450.999 318.898 450.423 318.323 449.713 318.323Z" fill="white"/>
<path d="M476.498 318.323H474.156C473.446 318.323 472.87 318.898 472.87 319.608C472.87 320.317 473.446 320.893 474.156 320.893H476.498C477.208 320.893 477.784 320.317 477.784 319.608C477.784 318.898 477.208 318.323 476.498 318.323Z" fill="white"/>
<path d="M484.087 318.323H481.745C481.035 318.323 480.459 318.898 480.459 319.608C480.459 320.317 481.035 320.893 481.745 320.893H484.087C484.797 320.893 485.373 320.317 485.373 319.608C485.373 318.898 484.797 318.323 484.087 318.323Z" fill="white"/>
<path d="M469.212 318.537H454.657C453.947 318.537 453.371 319.112 453.371 319.822C453.371 320.532 453.947 321.107 454.657 321.107H469.212C469.922 321.107 470.498 320.532 470.498 319.822C470.498 319.112 469.922 318.537 469.212 318.537Z" fill="white"/>
<path d="M415.834 403.694L404.84 386.326L439.349 358.833L453.593 343.063C455.443 341.014 457.799 339.486 460.426 338.633C463.052 337.779 465.857 337.629 468.559 338.198C471.262 338.767 473.768 340.034 475.826 341.874C477.885 343.714 479.425 346.062 480.291 348.683C481.575 352.566 481.299 356.797 479.521 360.481C477.743 364.165 474.603 367.015 470.762 368.429L448.239 376.721L415.834 403.694Z" fill="#FFB6B6"/>
<path d="M157.87 277.766V362.178H217.043V277.766C217.044 277.158 216.85 276.567 216.49 276.078C216.13 275.589 215.622 275.229 215.042 275.049C214.768 274.959 214.482 274.915 214.194 274.918H160.728C160.353 274.917 159.982 274.99 159.635 275.133C159.289 275.276 158.974 275.485 158.708 275.75C158.443 276.014 158.232 276.328 158.088 276.674C157.944 277.02 157.87 277.391 157.87 277.766V277.766ZM180.963 306.77C180.978 305.106 181.65 303.515 182.833 302.344C184.016 301.173 185.614 300.515 187.279 300.515C188.945 300.515 190.543 301.173 191.726 302.344C192.908 303.515 193.581 305.106 193.596 306.77V316.564C193.588 318.233 192.918 319.83 191.735 321.007C190.551 322.184 188.949 322.845 187.279 322.845C185.61 322.845 184.008 322.184 182.824 321.007C181.641 319.83 180.971 318.233 180.963 316.564V306.77Z" fill="#2F2E41"/>
<path d="M157.689 359.479V367.619C157.69 368.04 157.858 368.444 158.155 368.743C158.453 369.042 158.856 369.212 159.278 369.215H215.635C216.057 369.213 216.462 369.044 216.759 368.745C217.057 368.446 217.225 368.041 217.224 367.619V359.479H157.689Z" fill="#3F3D56"/>
<path d="M64.7817 150.587V304.712C64.7833 306.676 65.5647 308.56 66.9544 309.948C68.3441 311.337 70.2285 312.118 72.1939 312.12H300.734C302.699 312.118 304.584 311.337 305.974 309.948C307.363 308.56 308.145 306.676 308.146 304.712V150.587C308.142 148.625 307.359 146.744 305.97 145.357C304.58 143.97 302.698 143.19 300.734 143.188H72.1939C70.2302 143.19 68.3476 143.97 66.9584 145.357C65.5691 146.744 64.7864 148.625 64.7817 150.587Z" fill="#3F3D56"/>
<path d="M70.1433 152.505V302.811C70.1451 303.86 70.563 304.866 71.3056 305.608C72.0481 306.35 73.0546 306.768 74.1047 306.77H298.832C299.882 306.768 300.888 306.35 301.631 305.608C302.373 304.866 302.791 303.86 302.793 302.811V152.505C302.793 151.454 302.376 150.446 301.633 149.702C300.891 148.959 299.883 148.54 298.832 148.538H74.1047C73.0533 148.54 72.0458 148.959 71.3032 149.702C70.5605 150.446 70.1434 151.454 70.1433 152.505Z" fill="white"/>
<path d="M111.849 368.664C112.078 368.95 112.368 369.182 112.699 369.34C113.03 369.498 113.393 369.579 113.759 369.577H247.458C247.823 369.577 248.184 369.495 248.514 369.338C248.844 369.18 249.135 368.951 249.365 368.668C249.596 368.384 249.76 368.052 249.846 367.697C249.932 367.342 249.937 366.972 249.862 366.614L247.787 356.762C247.701 356.361 247.516 355.987 247.248 355.675C246.981 355.363 246.639 355.123 246.255 354.976C245.977 354.867 245.681 354.811 245.382 354.812H115.827C115.528 354.811 115.232 354.867 114.954 354.976C114.57 355.123 114.228 355.363 113.961 355.675C113.693 355.987 113.508 356.361 113.422 356.762L111.346 366.614C111.273 366.972 111.279 367.341 111.366 367.696C111.453 368.05 111.618 368.381 111.849 368.664Z" fill="#2F2E41"/>
<path d="M291.539 169.243H81.2624C81.0439 169.238 80.8359 169.148 80.683 168.992C80.5302 168.836 80.4446 168.626 80.4446 168.407C80.4446 168.189 80.5302 167.979 80.683 167.823C80.8359 167.667 81.0439 167.576 81.2624 167.572H291.539C291.757 167.576 291.965 167.667 292.118 167.823C292.271 167.979 292.357 168.189 292.357 168.407C292.357 168.626 292.271 168.836 292.118 168.992C291.965 169.148 291.757 169.238 291.539 169.243V169.243Z" fill="#3F3D56"/>
<path d="M95.5761 163.305C98.2826 163.305 100.477 161.063 100.477 158.298C100.477 155.533 98.2826 153.291 95.5761 153.291C92.8696 153.291 90.6755 155.533 90.6755 158.298C90.6755 161.063 92.8696 163.305 95.5761 163.305Z" fill="#3F3D56"/>
<path d="M112.506 163.305C115.212 163.305 117.406 161.063 117.406 158.298C117.406 155.533 115.212 153.291 112.506 153.291C109.799 153.291 107.605 155.533 107.605 158.298C107.605 161.063 109.799 163.305 112.506 163.305Z" fill="#3F3D56"/>
<path d="M129.435 163.305C132.141 163.305 134.335 161.063 134.335 158.298C134.335 155.533 132.141 153.291 129.435 153.291C126.728 153.291 124.534 155.533 124.534 158.298C124.534 161.063 126.728 163.305 129.435 163.305Z" fill="#3F3D56"/>
<path d="M281.344 154.529H269.32C269.083 154.535 268.856 154.633 268.69 154.803C268.524 154.973 268.431 155.201 268.431 155.439C268.431 155.676 268.524 155.905 268.69 156.075C268.856 156.245 269.083 156.343 269.32 156.348H281.344C281.583 156.345 281.812 156.248 281.98 156.078C282.148 155.907 282.242 155.678 282.242 155.439C282.242 155.2 282.148 154.97 281.98 154.8C281.812 154.63 281.583 154.533 281.344 154.529Z" fill="#3F3D56"/>
<path d="M281.344 157.945H269.32C269.082 157.95 268.856 158.049 268.69 158.218C268.523 158.388 268.43 158.617 268.43 158.855C268.43 159.092 268.523 159.321 268.69 159.491C268.856 159.661 269.082 159.759 269.32 159.764H281.344C281.584 159.761 281.813 159.664 281.981 159.494C282.149 159.324 282.244 159.094 282.244 158.855C282.244 158.615 282.149 158.386 281.981 158.215C281.813 158.045 281.584 157.948 281.344 157.945V157.945Z" fill="#3F3D56"/>
<path d="M281.344 161.361H269.32C269.083 161.366 268.856 161.465 268.69 161.634C268.524 161.804 268.431 162.033 268.431 162.27C268.431 162.508 268.524 162.736 268.69 162.906C268.856 163.076 269.083 163.174 269.32 163.18H281.344C281.583 163.176 281.812 163.079 281.98 162.909C282.148 162.739 282.242 162.509 282.242 162.27C282.242 162.031 282.148 161.802 281.98 161.632C281.812 161.461 281.583 161.364 281.344 161.361V161.361Z" fill="#3F3D56"/>
<path d="M571.223 363.051C571.586 364.107 572.275 365.02 573.19 365.661C574.104 366.301 575.199 366.636 576.316 366.616L598.134 366.054C599.259 366.033 600.346 365.647 601.234 364.956C602.122 364.266 602.762 363.306 603.059 362.221L606.147 329.227C607.242 329.723 608.435 329.968 609.637 329.944C610.681 329.918 611.711 329.686 612.666 329.263C613.621 328.839 614.483 328.231 615.203 327.475C615.923 326.718 616.487 325.827 616.862 324.853C617.238 323.878 617.418 322.839 617.391 321.795C617.365 320.751 617.134 319.723 616.71 318.768C616.286 317.814 615.678 316.952 614.921 316.233C614.163 315.513 613.272 314.95 612.297 314.574C611.322 314.199 610.282 314.019 609.238 314.046C608.757 314.044 608.278 314.094 607.808 314.194C607.297 313.642 606.675 313.202 605.984 312.904C605.293 312.606 604.546 312.456 603.794 312.463L570.233 313.329C569.954 313.34 569.677 313.374 569.405 313.432C568.669 313.569 567.971 313.862 567.358 314.292C566.745 314.721 566.231 315.277 565.85 315.921C565.47 316.566 565.232 317.284 565.153 318.028C565.074 318.772 565.155 319.524 565.391 320.234L571.223 363.051ZM606.78 326.987L608.977 319.125C609.227 318.217 609.232 317.259 608.994 316.347C609.1 316.347 609.194 316.297 609.301 316.296C610.807 316.265 612.264 316.832 613.353 317.873C614.442 318.914 615.073 320.344 615.108 321.85C615.143 323.355 614.58 324.813 613.541 325.904C612.503 326.995 611.073 327.629 609.567 327.669C608.593 327.699 607.63 327.463 606.78 326.987Z" fill="#2F2E41"/>
<path d="M569.405 313.432C570.12 317.518 578.159 320.39 587.825 319.891C596.713 319.482 603.981 316.362 605.312 312.666C604.82 312.52 604.307 312.452 603.793 312.463L570.233 313.329C569.954 313.34 569.677 313.374 569.405 313.432V313.432Z" fill="#3F3D56"/>
<path d="M589.596 344.92C589.64 344.909 589.682 344.891 589.72 344.866L594.459 341.766C594.516 341.729 594.563 341.678 594.595 341.618C594.628 341.558 594.645 341.491 594.645 341.422C594.645 341.354 594.628 341.287 594.596 341.227C594.563 341.167 594.516 341.116 594.459 341.078L589.534 337.855C589.489 337.825 589.438 337.804 589.385 337.794C589.332 337.783 589.277 337.784 589.224 337.795C589.171 337.806 589.12 337.827 589.076 337.857C589.031 337.888 588.992 337.927 588.963 337.972C588.933 338.017 588.913 338.068 588.903 338.121C588.892 338.175 588.893 338.229 588.904 338.282C588.915 338.335 588.937 338.385 588.968 338.43C588.998 338.475 589.037 338.513 589.083 338.543L593.481 341.422L589.27 344.177C589.188 344.23 589.128 344.311 589.1 344.404C589.073 344.498 589.079 344.598 589.118 344.687C589.157 344.776 589.227 344.848 589.314 344.891C589.402 344.934 589.502 344.944 589.596 344.92H589.596Z" fill="#19A180"/>
<path d="M582.113 345.265C582.192 345.245 582.264 345.202 582.318 345.141C582.373 345.08 582.408 345.004 582.419 344.922C582.431 344.841 582.417 344.758 582.381 344.685C582.345 344.611 582.288 344.55 582.216 344.509L577.849 342.007L582.07 338.874C582.114 338.841 582.15 338.801 582.178 338.755C582.206 338.708 582.224 338.657 582.232 338.603C582.24 338.55 582.237 338.496 582.224 338.443C582.211 338.391 582.187 338.341 582.155 338.298C582.123 338.255 582.082 338.218 582.036 338.191C581.99 338.163 581.938 338.144 581.885 338.137C581.831 338.129 581.777 338.131 581.724 338.145C581.672 338.158 581.623 338.181 581.579 338.213L576.853 341.722C576.798 341.762 576.754 341.816 576.725 341.878C576.697 341.94 576.683 342.008 576.687 342.076C576.691 342.144 576.712 342.211 576.749 342.269C576.785 342.327 576.834 342.375 576.894 342.409L581.807 345.223C581.899 345.277 582.009 345.292 582.113 345.265V345.265Z" fill="#19A180"/>
<path d="M589.125 347.636C589.165 347.627 589.203 347.611 589.238 347.589C589.284 347.561 589.324 347.524 589.356 347.48C589.388 347.437 589.411 347.387 589.424 347.335C589.437 347.282 589.439 347.228 589.431 347.174C589.423 347.121 589.404 347.069 589.376 347.023L582.659 335.988C582.602 335.894 582.511 335.828 582.404 335.802C582.298 335.777 582.186 335.794 582.093 335.851C582 335.908 581.933 335.999 581.907 336.105C581.881 336.211 581.899 336.323 581.955 336.416L588.672 347.452C588.718 347.527 588.787 347.585 588.868 347.619C588.95 347.652 589.04 347.658 589.125 347.636Z" fill="#19A180"/>
<path d="M211.525 214.675H175.131C173.646 214.675 172.442 215.878 172.442 217.362V220.915C172.442 222.399 173.646 223.602 175.131 223.602H211.525C213.009 223.602 214.213 222.399 214.213 220.915V217.362C214.213 215.878 213.009 214.675 211.525 214.675Z" fill="#19A180"/>
<path d="M232.739 232.528H153.917C152.432 232.528 151.229 233.731 151.229 235.215V238.768C151.229 240.252 152.432 241.455 153.917 241.455H232.739C234.223 241.455 235.427 240.252 235.427 238.768V235.215C235.427 233.731 234.223 232.528 232.739 232.528Z" fill="#E6E6E6"/>
<path d="M232.739 250.382H153.917C152.432 250.382 151.229 251.585 151.229 253.068V256.622C151.229 258.105 152.432 259.308 153.917 259.308H232.739C234.223 259.308 235.427 258.105 235.427 256.622V253.068C235.427 251.585 234.223 250.382 232.739 250.382Z" fill="#E6E6E6"/>
<path d="M239.421 310.165L239.599 310.728L239.609 310.747L244.982 327.075L251.164 345.891L262.795 381.25L262.908 386.743V386.762L263.772 430.947L261.377 436.937L264.073 446.758C264.073 446.758 262.833 431.913 256.181 440.438C252.414 445.283 248.008 450.241 244.391 454.888C249.661 457.02 255.016 458.948 260.456 460.672C261.63 461.048 262.814 461.404 263.998 461.761C264.252 461.836 264.505 461.911 264.759 461.986C282.791 467.316 301.432 470.31 320.227 470.897C321.204 470.925 322.162 470.944 323.092 470.962C323.421 470.972 323.741 470.981 324.06 470.981C325.112 470.991 326.155 471 327.207 471C329.331 471 331.445 470.969 333.549 470.906C349.125 470.467 364.611 468.374 379.744 464.662C379.641 458.419 379.359 451.123 378.955 443.33C378.767 439.509 374.549 435.368 374.295 431.368C374.117 428.364 377.903 425.538 377.706 422.486C376.428 403.699 374.831 410.911 373.647 397.606C373.525 396.301 373.412 395.052 373.309 393.86C372.548 385.316 372.022 379.973 372.022 379.973L377.076 348.135L385.015 298.147L384.404 297.142L383.718 296.804L341.845 276.092L339.571 270.271C338.909 268.594 337.76 267.153 336.271 266.134C334.783 265.115 333.023 264.564 331.219 264.553L303.635 264.44C302.204 264.434 300.792 264.768 299.515 265.417C298.239 266.065 297.136 267.008 296.298 268.168L288.829 278.505L239.421 310.165Z" fill="#3F3D56"/>
<path d="M269.156 373.382L262.908 386.743L258.643 395.869L251.305 434.262L247.632 438.158L244.485 424.364L211.544 431.674C210.463 425.674 211.254 431.877 210.587 425.295C210.775 425.107 210.973 424.919 211.17 424.732C211.696 424.243 212.138 423.783 212.128 423.342C211.752 400.639 212.88 362.003 222.294 338.595C223.768 334.774 225.712 331.15 228.081 327.807C228.269 327.554 228.447 327.3 228.626 327.047C232.966 320.972 235.71 314.991 239.599 310.738V310.729C239.623 310.709 239.645 310.687 239.665 310.663C239.679 310.656 239.692 310.646 239.702 310.635L266.422 296.476L267.568 328.662L268.385 351.797L269.156 373.382Z" fill="#3F3D56"/>
<path d="M365.501 377.177L373.305 393.865L376.029 399.676L383.364 438.065L387.026 441.952L390.18 428.161L391.662 427.857L418.394 422.324L426.186 447.054C427.942 444.13 428.633 440.69 428.144 437.314C427.655 433.939 426.014 430.837 423.5 428.531C422.968 428.05 422.524 427.581 422.537 427.138C422.98 400.436 421.346 351.677 406.587 331.609C401.899 325.241 399.086 318.898 394.994 314.466C394.982 314.454 394.982 314.441 394.969 314.441L385.011 298.146L384.403 297.146L383.719 296.804L365.501 377.177Z" fill="#3F3D56"/>
<path d="M318.224 256.595C338.491 256.595 354.921 240.175 354.921 219.921C354.921 199.666 338.491 183.247 318.224 183.247C297.957 183.247 281.527 199.666 281.527 219.921C281.527 240.175 297.957 256.595 318.224 256.595Z" fill="#FFB6B6"/>
<path d="M367.824 194.304C367.54 194.001 367.197 193.757 366.816 193.589C366.435 193.421 366.025 193.331 365.609 193.325L366.16 191.794C366.34 191.312 366.389 190.79 366.301 190.283C366.213 189.776 365.992 189.301 365.66 188.908C365.328 188.514 364.898 188.216 364.413 188.043C363.928 187.871 363.405 187.83 362.899 187.926L360.89 188.312L361.079 186.971C361.152 186.471 361.093 185.961 360.908 185.491C360.724 185.021 360.42 184.607 360.027 184.29C359.634 183.973 359.165 183.763 358.667 183.682C358.168 183.601 357.657 183.651 357.184 183.827C356.753 183.996 356.29 184.067 355.828 184.034C355.366 184.002 354.918 183.866 354.515 183.638C354.111 183.416 353.76 183.109 353.487 182.738C353.214 182.367 353.025 181.941 352.934 181.489L352.234 178.115L352.16 177.934C348.75 172.255 342.195 168.123 334.173 166.608C327.033 165.25 319.711 165.942 312.653 166.592C309.853 166.855 306.691 167.152 304.055 168.765C301.815 170.148 299.921 172.913 300.308 175.703C293.349 173.572 285.887 177.827 282.189 183.193C277.808 189.58 277.091 197.58 276.976 203.835C276.663 218.634 279.719 230.741 286.035 239.828C286.497 240.486 286.612 241.86 287.526 242.321L287.337 242.017C288.358 242.527 289.396 243.35 289.008 244.231C287.897 246.766 295.284 252.371 300.489 254.223C309.985 257.606 322.61 257.317 331.488 256.099L331.801 254.001C335.005 253.564 337.261 252.733 337.896 251.433C339.016 250.478 339.971 249.622 340.803 248.832L340.811 248.824C340.827 248.807 340.86 248.782 340.877 248.766C344.888 244.922 345.818 242.733 346.238 239.4C346.642 236.132 345.925 232.815 345.192 229.827C360.626 232.214 339.114 213.399 353.494 209.761C353.659 209.711 353.827 209.669 353.996 209.638C354.416 209.539 354.836 209.44 355.24 209.325C357.185 208.797 359.048 208.002 360.774 206.963C364.793 204.518 366.119 201.276 368.195 197.621C368.494 197.101 368.62 196.499 368.553 195.902C368.486 195.306 368.231 194.746 367.824 194.304V194.304Z" fill="#2F2E41"/>
<path d="M448.015 379.788C448.007 381.229 447.99 383.245 447.924 385.739C447.916 386.085 447.908 386.438 447.899 386.801C447.792 391.385 447.685 395.229 447.512 399.5C447.504 399.797 447.496 400.085 447.479 400.381C447.249 406.34 446.886 413.278 446.261 424.266C445.099 444.563 443.073 427.056 441.039 434.176C440.94 434.53 440.833 434.949 440.734 435.443C440.426 437.235 439.907 438.984 439.186 440.653C438.107 441.295 436.995 441.912 435.9 442.53C432.779 444.266 429.608 445.937 426.413 447.526C424.617 448.415 422.814 449.287 421.002 450.127C420.714 450.258 420.433 450.39 420.153 450.513C410.875 454.802 401.313 458.449 391.534 461.427C389.624 462.003 387.721 462.563 385.794 463.081C383.785 463.641 381.775 464.168 379.741 464.662C364.608 468.374 349.123 470.469 333.547 470.909C331.447 470.975 329.33 470.999 327.206 470.999C326.151 470.999 325.114 470.991 324.06 470.983C323.738 470.983 323.417 470.975 323.096 470.966C322.165 470.942 321.202 470.925 320.23 470.9C301.435 470.315 282.794 467.319 264.763 461.987L263.997 461.765C262.811 461.402 261.633 461.048 260.455 460.67C255.02 458.95 249.664 457.024 244.387 454.892C240.36 453.271 236.38 451.531 232.446 449.674C232.41 449.664 232.376 449.647 232.347 449.624C231.523 449.246 230.692 448.851 229.868 448.447C229.761 448.39 229.646 448.332 229.53 448.275C226.458 446.777 223.419 445.207 220.413 443.567C217.885 437.764 214.327 436.653 212.12 431.55C211.478 430.034 211.013 428.449 210.736 426.826C210.736 426.809 210.728 426.793 210.728 426.768C210.959 429.83 209.748 421.336 210.72 426.735C210.712 426.637 210.704 426.529 210.695 426.406C210.671 426.11 210.638 425.748 210.588 425.295C207.763 397.731 207.945 366.208 206.718 340.232C206.635 338.553 206.55 336.945 206.462 335.409C206.438 334.899 206.405 334.397 206.372 333.903C206.429 333.755 206.495 333.598 206.569 333.45C206.585 333.407 206.604 333.366 206.627 333.327C206.651 333.276 206.679 333.226 206.709 333.179C206.726 333.154 206.75 333.121 206.767 333.096C206.779 333.068 206.793 333.04 206.808 333.014C206.882 332.899 206.965 332.775 207.055 332.66C207.096 332.611 207.129 332.569 207.17 332.528C207.199 332.486 207.232 332.448 207.269 332.413C207.295 332.374 207.325 332.338 207.36 332.306C207.393 332.273 207.426 332.232 207.467 332.191C207.485 332.165 207.507 332.143 207.533 332.125C207.598 332.05 207.67 331.981 207.747 331.919C208.041 331.649 208.355 331.401 208.686 331.179C208.801 331.104 208.925 331.03 209.04 330.948C209.87 330.452 210.744 330.033 211.651 329.697C211.964 329.582 212.277 329.475 212.614 329.36C212.738 329.327 212.853 329.286 212.977 329.244C213.158 329.187 213.339 329.129 213.528 329.088C214.467 328.808 215.48 328.569 216.576 328.347C216.707 328.323 216.847 328.298 216.987 328.265C217.185 328.224 217.391 328.191 217.597 328.158C217.877 328.109 218.165 328.059 218.453 328.01C220.899 327.623 223.675 327.335 226.738 327.146C227.027 327.129 227.315 327.113 227.603 327.096C227.941 327.08 228.278 327.063 228.624 327.047C228.913 327.03 229.209 327.022 229.506 327.014C229.794 326.997 230.09 326.989 230.395 326.981C231.227 326.956 232.083 326.932 232.956 326.915C235.444 326.866 238.063 326.882 240.813 326.94C242.09 326.973 243.391 327.006 244.725 327.063C244.816 327.063 244.898 327.071 244.98 327.071C246.142 327.113 247.311 327.162 248.514 327.228C249.354 327.269 250.202 327.31 251.05 327.36C251.849 327.409 252.656 327.458 253.471 327.516C254.106 327.549 254.74 327.598 255.382 327.639C255.926 327.681 256.469 327.722 257.013 327.755L257.754 327.804C258.157 327.837 258.561 327.862 258.973 327.903C259.879 327.977 260.785 328.051 261.707 328.125C262.621 328.207 263.552 328.29 264.483 328.372C265.413 328.454 266.352 328.545 267.291 328.635C267.39 328.644 267.48 328.652 267.571 328.66C268.427 328.751 269.284 328.833 270.149 328.923C270.346 328.94 270.552 328.956 270.75 328.981C271.574 329.064 272.415 329.161 273.247 329.249C273.502 329.277 273.756 329.303 274.012 329.331C274.664 329.402 275.307 329.464 275.963 329.541C276.828 329.639 277.709 329.73 278.565 329.845C279.233 329.919 279.9 329.993 280.567 330.076C281.613 330.199 282.675 330.331 283.737 330.471C284.141 330.52 284.545 330.569 284.948 330.627C287.979 331.006 291.043 331.425 294.156 331.862C298.875 332.528 303.668 333.253 308.494 334.035C313.328 334.816 318.19 335.642 323.079 336.512C324.315 336.734 325.55 336.956 326.794 337.187C327.354 337.294 327.914 337.401 328.474 337.508C329.429 337.681 330.384 337.862 331.34 338.043C332.295 338.224 333.25 338.405 334.206 338.594C335.342 338.816 336.487 339.039 337.624 339.261C345.11 340.742 352.555 342.323 359.819 343.977C361.013 344.249 362.207 344.528 363.393 344.8C365.765 345.352 368.115 345.911 370.443 346.479C371.085 346.627 371.719 346.784 372.353 346.94C373.935 347.335 375.516 347.73 377.072 348.133L377.344 348.207C378.489 348.487 379.609 348.775 380.729 349.072C383.373 349.763 385.973 350.463 388.528 351.171C390.225 351.64 391.902 352.114 393.56 352.594C396.039 353.31 398.469 354.035 400.832 354.767C401.417 354.948 402.002 355.129 402.578 355.302C404.308 355.837 406.013 356.38 407.668 356.924C408.986 357.352 410.271 357.788 411.539 358.224C412.807 358.66 414.051 359.097 415.27 359.533C416.052 359.813 416.826 360.109 417.6 360.389C418.712 360.8 419.807 361.212 420.878 361.623C421.208 361.747 421.529 361.878 421.85 362.002C422.056 362.092 422.253 362.167 422.451 362.249C422.838 362.405 423.234 362.553 423.612 362.71C423.999 362.858 424.378 363.014 424.757 363.179C425.128 363.327 425.507 363.483 425.869 363.64C426.24 363.788 426.602 363.944 426.964 364.109C427.269 364.232 427.565 364.364 427.854 364.496C428.438 364.751 429.023 365.006 429.591 365.269C429.871 365.401 430.151 365.525 430.431 365.656L431.074 365.953C431.164 366.002 431.255 366.043 431.346 366.084C431.552 366.183 431.766 366.29 431.972 366.389C432.449 366.611 432.919 366.85 433.38 367.072C433.998 367.385 434.599 367.697 435.175 368.002C435.76 368.315 436.328 368.628 436.872 368.932C436.962 368.981 437.045 369.031 437.135 369.08C437.259 369.146 437.382 369.22 437.506 369.286C437.926 369.525 438.33 369.772 438.733 370.01C439.524 370.496 440.273 370.973 440.973 371.451C441.13 371.558 441.278 371.665 441.434 371.763C441.953 372.134 442.447 372.496 442.909 372.866C442.909 372.874 442.909 372.874 442.917 372.874C443.073 372.99 443.222 373.113 443.37 373.228C443.493 373.344 443.625 373.442 443.749 373.558C444.177 373.928 444.572 374.282 444.935 374.644C445.056 374.756 445.171 374.874 445.28 374.998C445.328 375.038 445.372 375.082 445.412 375.13C445.577 375.294 445.725 375.459 445.865 375.623C445.887 375.646 445.906 375.671 445.923 375.698C446.12 375.928 446.302 376.158 446.475 376.389C446.557 376.504 446.648 376.619 446.722 376.735C446.821 376.875 446.919 377.023 447.002 377.163C447.076 377.278 447.142 377.401 447.208 377.517C447.382 377.813 447.531 378.124 447.652 378.447C447.745 378.665 447.819 378.891 447.875 379.121C447.937 379.34 447.984 379.563 448.015 379.788V379.788Z" fill="#2F2E41"/>
<path opacity="0.2" d="M448.015 379.788C448.006 381.229 447.99 383.245 447.924 385.739C447.916 386.085 447.899 386.438 447.891 386.801C447.809 390.299 447.685 394.62 447.512 399.5C447.504 399.797 447.496 400.085 447.479 400.381C447.249 406.34 446.886 413.278 446.261 424.266C445.099 444.563 443.073 427.056 441.039 434.176C435.389 430.702 429.196 427.064 422.575 423.328C421.381 422.653 420.175 421.975 418.959 421.295C405.716 413.912 390.925 406.175 375.483 398.513C374.874 398.208 374.256 397.904 373.647 397.607C338.274 380.134 299.665 363.138 268.386 351.796C262.349 349.607 256.584 347.631 251.165 345.895C239.751 342.249 229.884 339.697 222.291 338.594C214.385 337.442 208.925 337.853 206.717 340.232C206.635 338.553 206.55 336.945 206.462 335.409C206.429 334.899 206.396 334.397 206.363 333.903C206.414 333.767 206.48 333.638 206.544 333.508C206.553 333.489 206.56 333.469 206.569 333.45C206.585 333.407 206.604 333.366 206.627 333.327C206.651 333.276 206.679 333.226 206.709 333.178C206.736 333.12 206.769 333.065 206.808 333.014C206.882 332.899 206.964 332.775 207.055 332.66C207.122 332.574 207.193 332.491 207.269 332.413C207.294 332.373 207.325 332.337 207.36 332.306C207.393 332.273 207.426 332.232 207.467 332.191C207.484 332.165 207.507 332.143 207.533 332.125C207.598 332.05 207.67 331.981 207.747 331.919C208.041 331.649 208.355 331.401 208.686 331.178C208.801 331.104 208.925 331.03 209.04 330.948C209.87 330.452 210.744 330.033 211.651 329.697C211.964 329.582 212.276 329.475 212.614 329.359C212.738 329.327 212.853 329.285 212.977 329.244C213.158 329.187 213.339 329.129 213.528 329.088C214.467 328.808 215.48 328.569 216.576 328.347C216.905 328.281 217.251 328.215 217.597 328.158C217.877 328.108 218.165 328.059 218.453 328.01C220.899 327.623 223.675 327.335 226.738 327.145C227.027 327.129 227.315 327.113 227.603 327.096C227.941 327.08 228.278 327.063 228.624 327.047C228.913 327.03 229.209 327.022 229.506 327.014C229.794 326.997 230.09 326.989 230.395 326.981C231.227 326.956 232.083 326.932 232.956 326.915C235.443 326.874 238.062 326.89 240.813 326.948C242.09 326.973 243.391 327.014 244.725 327.071C244.807 327.071 244.898 327.08 244.98 327.08C246.142 327.113 247.319 327.17 248.514 327.228C249.354 327.269 250.202 327.31 251.05 327.359C251.849 327.409 252.656 327.458 253.471 327.516C254.106 327.549 254.74 327.598 255.382 327.639C255.926 327.68 256.469 327.722 257.013 327.755C257.663 327.804 258.314 327.853 258.973 327.903C259.879 327.977 260.785 328.051 261.707 328.125C262.621 328.207 263.552 328.29 264.482 328.372C265.413 328.454 266.352 328.545 267.291 328.635C267.39 328.643 267.48 328.652 267.571 328.66C268.427 328.75 269.284 328.833 270.149 328.923C274.942 329.409 279.875 329.977 284.948 330.627C287.979 331.014 291.048 331.428 294.156 331.87C298.875 332.536 303.668 333.261 308.494 334.034C313.328 334.816 318.19 335.642 323.079 336.512C324.315 336.734 325.55 336.956 326.794 337.187C328.309 337.467 329.824 337.752 331.34 338.043C332.295 338.224 333.25 338.405 334.206 338.594C335.342 338.816 336.487 339.039 337.624 339.261C345.11 340.742 352.555 342.323 359.819 343.977C361.013 344.249 362.207 344.528 363.393 344.8C365.765 345.351 368.115 345.911 370.443 346.479C371.085 346.635 371.719 346.792 372.353 346.948C373.943 347.343 375.516 347.738 377.072 348.133V348.142C377.163 348.158 377.254 348.183 377.344 348.207C378.481 348.496 379.609 348.784 380.729 349.08C383.373 349.771 385.973 350.468 388.528 351.17C390.225 351.648 391.905 352.117 393.56 352.594C396.039 353.319 398.469 354.043 400.832 354.767C401.417 354.948 402.002 355.129 402.578 355.302C404.308 355.845 406.004 356.386 407.668 356.924C408.986 357.352 410.271 357.788 411.539 358.224C412.807 358.66 414.051 359.097 415.27 359.533C416.06 359.813 416.834 360.101 417.6 360.38C418.72 360.792 419.807 361.204 420.878 361.623C421.208 361.747 421.529 361.878 421.85 362.002C422.451 362.232 423.036 362.471 423.612 362.71C423.999 362.858 424.378 363.014 424.757 363.179C425.128 363.327 425.507 363.483 425.869 363.64C426.24 363.788 426.602 363.944 426.964 364.109C427.269 364.232 427.565 364.364 427.854 364.496C428.438 364.751 429.023 365.006 429.591 365.269C429.871 365.401 430.151 365.525 430.432 365.656L431.074 365.953C431.164 366.002 431.255 366.043 431.346 366.084C432.046 366.413 432.721 366.743 433.38 367.072C433.998 367.385 434.599 367.697 435.175 368.002C435.859 368.364 436.509 368.718 437.135 369.08C437.259 369.146 437.382 369.22 437.506 369.286C437.926 369.525 438.329 369.772 438.733 370.01C439.524 370.496 440.273 370.973 440.973 371.451C441.665 371.928 442.307 372.397 442.909 372.866C442.909 372.874 442.909 372.874 442.917 372.874C443.205 373.105 443.485 373.335 443.749 373.558C444.177 373.928 444.572 374.282 444.935 374.644C445.056 374.756 445.171 374.874 445.28 374.998C445.328 375.038 445.373 375.082 445.412 375.13C445.585 375.319 445.758 375.508 445.923 375.698C446.121 375.928 446.302 376.158 446.475 376.389C446.557 376.504 446.648 376.619 446.722 376.735C446.821 376.874 446.919 377.023 447.002 377.163C447.076 377.278 447.142 377.401 447.208 377.517C447.382 377.813 447.531 378.124 447.652 378.447C447.742 378.666 447.817 378.891 447.875 379.121C447.937 379.34 447.984 379.563 448.015 379.788V379.788Z" fill="black"/>
</g>
<defs>
<clipPath id="clip0_68_59">
<rect width="648" height="471" fill="white"/>
</clipPath>
</defs>
</svg>
