<svg width="535" height="697" viewBox="0 0 535 697" fill="none" xmlns="http://www.w3.org/2000/svg">
<rect opacity="0.5" width="198.662" height="198.662" rx="20" transform="matrix(-0.997541 -0.0700802 -0.0700802 0.997541 243.477 22.9223)" fill="#19A180"/>
<rect opacity="0.5" width="198.662" height="198.662" rx="20" transform="matrix(-0.997541 -0.0700802 -0.0700802 0.997541 527.403 141.949)" fill="#19A180"/>
<rect opacity="0.5" width="198.662" height="198.662" rx="20" transform="matrix(-0.997541 -0.0700802 -0.0700802 0.997541 219.096 369.973)" fill="#19A180"/>
<rect opacity="0.5" width="198.662" height="198.662" rx="20" transform="matrix(-0.997541 -0.0700802 -0.0700802 0.997541 503.021 489)" fill="#19A180"/>
<rect width="199" height="198" rx="20" transform="matrix(-1 0 0 1 221 26.0523)" fill="#19A180"/>
<rect width="198" height="199" rx="20" transform="matrix(-1 0 0 1 512 124.052)" fill="#19A180"/>
<rect width="199" height="199" rx="20" transform="matrix(-1 0 0 1 221 373.052)" fill="#19A180"/>
<rect width="198" height="198" rx="20" transform="matrix(-1 0 0 1 512 472.052)" fill="#19A180"/>
<path d="M176.98 478.46C177.52 487.76 173.26 496.7 165.64 502.16L170.26 511.1C171.64 513.8 171.82 516.98 170.62 519.8C169.48 522.62 167.14 524.84 164.26 525.8L159.52 527.3C157.546 527.965 155.416 528.005 153.418 527.414C151.421 526.824 149.655 525.631 148.36 524L135.64 509C130.3 508.1 125.26 505.82 121 502.4C118 503.3 115 503.78 112 503.78C106.72 503.78 101.44 502.16 97 499.04C93.82 500 90.58 500.42 87.28 500.36C82.54 500.42 77.86 499.46 73.48 497.66C69.264 495.779 65.6616 492.751 63.0837 488.921C60.5057 485.091 59.0561 480.614 58.9 476C58.42 471.68 59.14 467.3 61 463.34C59.26 458.84 59.08 453.92 60.58 449.36C62.8 443.66 67 438.92 72.22 435.92C75.7 425.78 85.48 419 96.22 419.72C105.82 410.72 120.52 409.76 131.2 417.5C133.72 416.84 136.36 416.48 139 416.48C147.16 416.3 154.9 419.9 160 426.32C172.24 429.5 181 440.42 181.48 453.14C181.78 459.8 179.98 466.34 176.32 471.92C176.74 474.08 176.98 476.24 176.98 478.46ZM146.98 470C150.4 470.42 153.1 473 153.1 476.42C153.1 478.011 152.468 479.537 151.343 480.663C150.217 481.788 148.691 482.42 147.1 482.42H143.32C141.4 487.82 138.04 492.56 133.6 496.16C135.1 496.7 136.66 497 138.22 497.42C169 497 165.4 478.22 165.4 477.92C165.241 473.799 163.451 469.909 160.424 467.107C157.397 464.306 153.381 462.821 149.26 462.98C147.669 462.98 146.143 462.348 145.017 461.223C143.892 460.097 143.26 458.571 143.26 456.98C143.26 455.389 143.892 453.863 145.017 452.737C146.143 451.612 147.669 450.98 149.26 450.98C156.64 451.16 163.72 453.92 169.24 458.78C169.54 457.04 169.72 455.24 169.72 453.44C169.36 446 166 439.52 152.5 438.26C145 420.5 126.1 430.34 126.1 435.86C125.92 437.24 127.36 440.18 127.6 440.36C129.191 440.36 130.717 440.992 131.843 442.117C132.968 443.243 133.6 444.769 133.6 446.36C133.6 449.66 130.9 452.36 127.6 452.36C124.42 452.24 121.42 451.04 119.02 449C116.14 450.86 112.84 452 109.42 452.36C106 452.66 103.18 450.26 103 446.96C102.889 446.176 102.94 445.378 103.149 444.615C103.358 443.851 103.721 443.139 104.216 442.521C104.71 441.903 105.326 441.392 106.025 441.021C106.724 440.649 107.491 440.424 108.28 440.36C109.24 440.24 113.92 439.52 113.92 435.74C113.92 431.78 115.42 428 118 425C112.48 423.5 106.54 425.48 100.54 432.74C89.5 431 85 432.5 81.7 444.2C76 447.02 73 449 71.68 455C78.16 453.68 84.82 454.22 91 456.5C94 457.64 95.68 461 94.54 464.24C93.4 467.36 89.92 468.92 86.8 467.78C82.42 465.86 77.5 465.74 73 467.42C71.08 469.04 71.08 472.4 71.08 475.04C71.08 479.48 73.3 483.62 77.08 486.02C80.26 487.64 83.8 488.48 87.34 488.42C86.44 486.86 85.66 485.24 85 483.56C84.5277 482.018 84.6715 480.354 85.4014 478.916C86.1312 477.479 87.3901 476.38 88.9134 475.851C90.4366 475.323 92.1054 475.406 93.5688 476.083C95.0322 476.759 96.1761 477.977 96.76 479.48C99.16 486.32 105.28 491 112.48 491.78C120.7 491.36 128.02 486.5 131.62 479C133 470.72 139.66 470 146.98 470ZM158.98 514.82L155.26 507.02L151 507.98L157 515.48L158.98 514.82V514.82ZM131.08 463.16C131.132 461.627 130.595 460.133 129.58 458.983C128.565 457.834 127.148 457.117 125.62 456.98C121.36 456.74 117.22 458.18 114.04 461C110.62 464.48 108.82 469.28 109 474.14C109 475.731 109.632 477.257 110.757 478.383C111.883 479.508 113.409 480.14 115 480.14C118.42 480.14 121 477.44 121 474.14C121 472.52 121.42 470.9 122.38 469.58C123.1 468.98 124 468.68 124.96 468.68C128.26 468.86 131.08 466.4 131.08 463.16Z" fill="#C5C3C6"/>
<path d="M107.977 105.765L116.091 114.249L99.8636 131.218L116.091 148.186L107.977 156.671L83.6364 131.218L107.977 105.765ZM135.023 156.671L126.909 148.186L143.136 131.218L126.909 114.249L135.023 105.765L159.364 131.218L135.023 156.671ZM170.182 69H72.8182C69.949 69 67.1974 70.1919 65.1686 72.3133C63.1398 74.4348 62 77.3121 62 80.3124V170.811C62 173.811 63.1398 176.689 65.1686 178.81C67.1974 180.932 69.949 182.123 72.8182 182.123H170.182C173.051 182.123 175.803 180.932 177.831 178.81C179.86 176.689 181 173.811 181 170.811V80.3124C181 77.3121 179.86 74.4348 177.831 72.3133C175.803 70.1919 173.051 69 170.182 69ZM170.182 170.811H72.8182V91.6247H170.182V170.811Z" fill="#C5C3C6"/>
<path d="M458 521H368C362.5 521 358 525.5 358 531V611C358 616.5 362.5 621 368 621H458C463.5 621 468 616.5 468 611V531C468 525.5 463.5 521 458 521ZM408 566H398V573.5C398 579 393.5 583.5 388 583.5C393.5 583.5 398 588 398 593.5V601H408V611H398C392.5 611 388 606.5 388 601V598.5C388 593 383.5 588.5 378 588.5V578.5C383.5 578.5 388 574 388 568.5V566C388 560.5 392.5 556 398 556H408V566ZM448 588.5C442.5 588.5 438 593 438 598.5V601C438 606.5 433.5 611 428 611H418V601H428V593.5C428 588 432.5 583.5 438 583.5C432.5 583.5 428 579 428 573.5V566H418V556H428C433.5 556 438 560.5 438 566V568.5C438 574 442.5 578.5 448 578.5V588.5ZM458 546H368V531H458V546Z" fill="#C5C3C6"/>
<g clip-path="url(#clip0_0_1)">
<path d="M443.72 179.2H356.68C354.643 179.2 352.69 180.009 351.249 181.449C349.809 182.89 349 184.843 349 186.88V280.32C349 282.357 349.809 284.31 351.249 285.751C352.69 287.191 354.643 288 356.68 288H443.72C445.757 288 447.71 287.191 449.151 285.751C450.591 284.31 451.4 282.357 451.4 280.32V186.88C451.4 184.843 450.591 182.89 449.151 181.449C447.71 180.009 445.757 179.2 443.72 179.2Z" fill="#C5C3C6"/>
<path opacity="0.2" d="M446.28 179.2H418.12C414.585 179.2 411.72 182.065 411.72 185.6V270.08C411.72 273.615 414.585 276.48 418.12 276.48H446.28C449.815 276.48 452.68 273.615 452.68 270.08V185.6C452.68 182.065 449.815 179.2 446.28 179.2Z" fill="#DCDCDD"/>
<path d="M446.28 279.04C446.28 280.058 445.875 281.035 445.155 281.755C444.435 282.475 443.458 282.88 442.44 282.88H357.96C356.942 282.88 355.965 282.475 355.245 281.755C354.525 281.035 354.12 280.058 354.12 279.04V200.96H446.28V279.04Z" fill="#C5C3C6"/>
<path d="M360.52 194.56C362.641 194.56 364.36 192.841 364.36 190.72C364.36 188.599 362.641 186.88 360.52 186.88C358.399 186.88 356.68 188.599 356.68 190.72C356.68 192.841 358.399 194.56 360.52 194.56Z" fill="#DCDCDD"/>
<path d="M370.76 194.56C372.881 194.56 374.6 192.841 374.6 190.72C374.6 188.599 372.881 186.88 370.76 186.88C368.639 186.88 366.92 188.599 366.92 190.72C366.92 192.841 368.639 194.56 370.76 194.56Z" fill="#CECECE"/>
<path d="M381 194.56C383.121 194.56 384.84 192.841 384.84 190.72C384.84 188.599 383.121 186.88 381 186.88C378.879 186.88 377.16 188.599 377.16 190.72C377.16 192.841 378.879 194.56 381 194.56Z" fill="#B3B3B3"/>
<path fill-rule="evenodd" clip-rule="evenodd" d="M359.24 206.08H441.16V277.76H359.24V206.08Z" fill="#19A180"/>
<path fill-rule="evenodd" clip-rule="evenodd" d="M392.52 206.08H441.16V277.76H392.52V206.08Z" fill="#19A180"/>
<path fill-rule="evenodd" clip-rule="evenodd" d="M469.32 160H423.24C421.203 160 419.25 160.809 417.809 162.249C416.369 163.69 415.56 165.643 415.56 167.68V264.961C415.561 266.998 416.37 268.951 417.81 270.39C419.251 271.83 421.204 272.639 423.24 272.639H469.32C471.356 272.639 473.309 271.83 474.75 270.39C476.19 268.951 476.999 266.998 477 264.961V167.68C477 165.643 476.191 163.69 474.751 162.249C473.31 160.809 471.357 160 469.32 160V160ZM471.88 254.72H420.68V177.92H471.88V254.72Z" fill="#C5C3C6"/>
<path fill-rule="evenodd" clip-rule="evenodd" d="M420.68 177.92H471.88V254.72H420.68V177.92Z" fill="#C5C3C6"/>
<path fill-rule="evenodd" clip-rule="evenodd" d="M424.52 181.76H468.04V250.88H424.52V181.76Z" fill="#19A180"/>
<path fill-rule="evenodd" clip-rule="evenodd" d="M424.52 216.32H468.04V250.88H424.52V216.32Z" fill="#19A180"/>
<path fill-rule="evenodd" clip-rule="evenodd" d="M437.96 167.68H453.32C453.829 167.68 454.318 167.882 454.678 168.242C455.038 168.602 455.24 169.091 455.24 169.6C455.24 170.109 455.038 170.598 454.678 170.958C454.318 171.318 453.829 171.52 453.32 171.52H437.96C437.451 171.52 436.962 171.318 436.602 170.958C436.242 170.598 436.04 170.109 436.04 169.6C436.04 169.091 436.242 168.602 436.602 168.242C436.962 167.882 437.451 167.68 437.96 167.68ZM446.28 259.841C447.298 259.841 448.274 260.246 448.994 260.966C449.714 261.686 450.119 262.662 450.119 263.68C450.119 264.698 449.714 265.675 448.994 266.394C448.274 267.114 447.298 267.519 446.28 267.519C445.768 267.532 445.258 267.442 444.78 267.256C444.303 267.069 443.868 266.788 443.501 266.43C443.134 266.072 442.842 265.645 442.643 265.172C442.444 264.7 442.341 264.193 442.341 263.68C442.341 263.167 442.444 262.66 442.643 262.188C442.842 261.715 443.134 261.288 443.501 260.93C443.868 260.572 444.303 260.291 444.78 260.105C445.258 259.918 445.768 259.828 446.28 259.841V259.841Z" fill="#DCDCDD"/>
</g>
<defs>
<clipPath id="clip0_0_1">
<rect width="128" height="128" fill="white" transform="translate(349 160)"/>
</clipPath>
</defs>
</svg>
