<svg width="161" height="46" viewBox="0 0 161 46" fill="none" xmlns="http://www.w3.org/2000/svg">
<path d="M2.916 10.7V14.948H18.576C19.8 14.948 20.412 15.596 20.412 16.532C20.412 17.36 19.944 18.008 19.152 18.332L5.976 23.984C3.348 25.1 2.052 26.9 2.052 29.672C2.052 33.056 4.032 35 7.92 35H24.228V30.752H8.208C7.02 30.752 6.408 30.104 6.408 29.168C6.408 28.34 6.876 27.692 7.632 27.368L20.88 21.716C23.472 20.6 24.768 18.8 24.768 16.028C24.768 12.644 22.752 10.7 18.864 10.7H2.916ZM29.4899 15.992V35H33.3059V15.992H29.4899ZM29.4899 8.828V13.256H33.3419V8.828H29.4899ZM43.8832 15.992C40.1392 15.992 38.7352 17.72 38.7352 21.536V35H42.5512V22.112C42.5512 20.456 43.3072 19.664 44.9992 19.664H51.6952V15.992H43.8832ZM54.2303 15.992V19.664H56.8223V28.448C56.8223 33.416 58.5143 35 62.4383 35H65.8583V31.508H63.2303C61.4303 31.508 60.6743 30.788 60.6743 28.664V19.664H65.9303V15.992H60.6743V11.492H56.8223V15.992H54.2303ZM69.5303 15.992V27.512C69.5303 31.904 72.3383 35 77.7743 35H81.3023C86.7383 35 89.5463 31.904 89.5463 27.512V15.992H85.8023V27.368C85.8023 29.6 84.1823 31.292 81.1583 31.292H78.0623C75.0383 31.292 73.3823 29.6 73.3823 27.368V15.992H69.5303ZM100.208 15.992C95.7797 15.992 94.0157 18.116 94.0157 21.536C94.0157 24.452 95.3117 27.08 100.568 27.08H105.068C106.976 27.08 107.768 27.692 107.768 29.204C107.768 30.68 107.048 31.292 105.284 31.292H94.2317V35H105.284C109.748 35 111.512 32.624 111.512 29.24C111.512 26.288 110.18 23.876 104.924 23.876H100.46C98.3357 23.876 97.7597 23.156 97.7597 21.824C97.7597 20.384 98.4797 19.664 100.244 19.664H110.756V15.992H100.208Z" fill="#C5C3C6"/>
<path d="M29.4766 8.81641H33.3462V13.2561H30.8015H29.4766V8.81641Z" fill="black"/>
<path d="M29.4766 8.81641H33.3462V13.2561H30.8015H29.4766V8.81641Z" fill="#16896C"/>
<path d="M127 45C124.239 45 122 42.7614 122 40L122 18L130.5 18C133.261 18 135.5 20.2386 135.5 23L135.5 40C135.5 42.7614 133.261 45 130.5 45L127 45Z" fill="#12725A"/>
<path d="M114 0H147.25C150.011 0 152.25 2.23858 152.25 5V13.5H119C116.239 13.5 114 11.2614 114 8.5V0Z" fill="#19A180"/>
<path d="M144.625 27C141.864 27 139.625 24.7614 139.625 22L139.625 5C139.625 2.23858 141.864 -9.78513e-08 144.625 -2.18557e-07L148.125 -3.71547e-07C150.886 -4.92252e-07 153.125 2.23858 153.125 5L153.125 27L144.625 27Z" fill="#19A180"/>
<path d="M161 45.125L127.75 45.125C124.989 45.125 122.75 42.8864 122.75 40.125L122.75 36.625C122.75 33.8636 124.989 31.625 127.75 31.625L156 31.625C158.761 31.625 161 33.8636 161 36.625L161 45.125Z" fill="#12725A"/>
<path d="M133.984 12.9835C138.316 13.3514 139.811 14.5115 140.127 18.9839" stroke="#19A180"/>
<path d="M135 13.0311C139.253 13.3973 140.721 14.5513 141.031 18.9999" stroke="#19A180"/>
<path d="M135 12.0311C139.253 12.3973 140.721 13.5513 141.031 17.9999" stroke="#19A180"/>
<path d="M141.047 32.1235C136.715 31.7506 135.22 30.5757 134.904 26.0469" stroke="#12725A"/>
<path d="M140.031 32.022C135.778 31.6543 134.31 30.4959 134 26.0309" stroke="#12725A"/>
<path d="M140.031 32.956C135.778 32.5922 134.31 31.4458 134 27.0265" stroke="#12725A"/>
</svg>
