<svg width="76" height="75" viewBox="0 0 76 75" fill="none" xmlns="http://www.w3.org/2000/svg">
<path opacity="0.25" d="M6.33325 40.625H44.3333V68.75H50.6666V6.25H44.3333V34.375H6.33325V40.625Z" fill="#C5C3C6"/>
<path d="M66.5001 68.75H50.6667V6.25H66.5001C67.3399 6.25 68.1454 6.57924 68.7393 7.16529C69.3331 7.75134 69.6668 8.5462 69.6668 9.375V65.625C69.6668 66.4538 69.3331 67.2487 68.7393 67.8347C68.1454 68.4208 67.3399 68.75 66.5001 68.75Z" fill="#C5C3C6"/>
<path opacity="0.7" d="M44.3333 68.75H9.49992C8.66007 68.75 7.85461 68.4208 7.26075 67.8347C6.66688 67.2487 6.33325 66.4538 6.33325 65.625V40.625H44.3333V68.75ZM44.3333 34.375H6.33325V9.375C6.33325 8.5462 6.66688 7.75134 7.26075 7.16529C7.85461 6.57924 8.66007 6.25 9.49992 6.25H44.3333V34.375Z" fill="#C5C3C6"/>
</svg>
