<svg width="87" height="87" viewBox="0 0 87 87" fill="none" xmlns="http://www.w3.org/2000/svg">
<path d="M37.27 25.4883C37.27 24.6068 37.6202 23.7614 38.2435 23.1381C38.8668 22.5148 39.7122 22.1646 40.5937 22.1646H66.7521C66.8534 22.1646 66.9492 22.1857 67.0492 22.1945V14.9001C67.0492 13.6419 66.5493 12.4351 65.6596 11.5454C64.7699 10.6557 63.5632 10.1559 62.3049 10.1559H6.60658C5.34845 10.1561 4.14191 10.656 3.25235 11.5457C2.36278 12.4354 1.86304 13.642 1.86304 14.9001V55.7092C1.86304 56.9673 2.36278 58.174 3.25235 59.0636C4.14191 59.9533 5.34845 60.4533 6.60658 60.4534H37.27V25.4883Z" fill="#C5C3C6"/>
<path d="M3.9021 55.7099V14.9001C3.9021 13.642 4.40186 12.4355 5.29145 11.5459C6.18104 10.6563 7.38757 10.1566 8.64564 10.1566H6.60658C5.34851 10.1566 4.14197 10.6563 3.25239 11.5459C2.3628 12.4355 1.86304 13.642 1.86304 14.9001V55.7099C1.86322 56.9679 2.36304 58.1743 3.25259 59.0639C4.14213 59.9534 5.34857 60.4532 6.60658 60.4534H8.64564C7.38763 60.4532 6.1812 59.9534 5.29165 59.0639C4.4021 58.1743 3.90228 56.9679 3.9021 55.7099V55.7099Z" fill="white"/>
<path d="M37.2701 55.1165H31.5729C31.2433 55.1174 30.9275 55.2488 30.6944 55.4818C30.4613 55.7149 30.33 56.0308 30.3291 56.3604V56.6241C30.3302 56.9536 30.4616 57.2694 30.6946 57.5024C30.9276 57.7354 31.2434 57.8668 31.5729 57.8679H37.2701V55.1165Z" fill="#828282"/>
<path d="M37.27 25.4883C37.27 24.6068 37.6201 23.7614 38.2434 23.1381C38.8668 22.5148 39.7121 22.1646 40.5936 22.1646H63.0029V17.1424C63.0029 16.4213 62.7165 15.7298 62.2066 15.2199C61.6968 14.7101 61.0052 14.4236 60.2842 14.4236H8.62793C7.90687 14.4236 7.21535 14.7101 6.70548 15.2199C6.19562 15.7298 5.90918 16.4213 5.90918 17.1424V49.6953C5.90918 50.4164 6.19562 51.1079 6.70548 51.6178C7.21535 52.1277 7.90687 52.4141 8.62793 52.4141H37.27V25.4883Z" fill="#C5C3C6"/>
<path d="M37.27 25.4883C37.27 24.6068 37.6201 23.7614 38.2434 23.1381C38.8668 22.5148 39.7121 22.1646 40.5936 22.1646H59.145V19.1815C59.145 18.8209 59.0018 18.4752 58.7469 18.2202C58.4919 17.9653 58.1462 17.8221 57.7856 17.8221H11.1265C10.7659 17.8221 10.4202 17.9653 10.1652 18.2202C9.91031 18.4752 9.76709 18.8209 9.76709 19.1815V28.5469C9.76709 28.9074 9.91031 29.2532 10.1652 29.5081C10.4202 29.763 10.7659 29.9062 11.1265 29.9062H37.27V25.4883Z" fill="#B1B1B1"/>
<path d="M37.27 32.0955H28.9717C28.6112 32.0955 28.2654 32.2387 28.0105 32.4937C27.7555 32.7486 27.6123 33.0944 27.6123 33.4549V40.7812C27.6123 41.1418 27.7555 41.4875 28.0105 41.7425C28.2654 41.9974 28.6112 42.1406 28.9717 42.1406H37.27V32.0955Z" fill="#828282"/>
<path d="M23.4539 40.784V33.4549C23.4539 32.7041 22.8452 32.0955 22.0945 32.0955H11.1264C10.3756 32.0955 9.76699 32.7041 9.76699 33.4549V40.784C9.76699 41.5347 10.3756 42.1433 11.1264 42.1433H22.0945C22.8452 42.1433 23.4539 41.5347 23.4539 40.784Z" fill="#828282"/>
<path d="M59.8948 71.5385V36.2776C59.8948 35.9382 59.9617 35.602 60.0917 35.2885C60.2217 34.9749 60.4123 34.69 60.6525 34.4501C60.8927 34.2102 61.1778 34.0201 61.4915 33.8905C61.8053 33.7609 62.1415 33.6944 62.481 33.6948H70.0758V25.4883C70.0759 25.0518 69.99 24.6197 69.8231 24.2164C69.6561 23.8132 69.4114 23.4468 69.1028 23.1381C68.7942 22.8295 68.4278 22.5847 68.0246 22.4176C67.6214 22.2506 67.1893 22.1646 66.7528 22.1646H40.5937C39.7122 22.1646 38.8668 22.5148 38.2435 23.1381C37.6202 23.7614 37.27 24.6068 37.27 25.4883V70.8044C37.27 71.2408 37.356 71.673 37.523 72.0762C37.6901 72.4794 37.9349 72.8458 38.2435 73.1544C38.5522 73.4629 38.9186 73.7077 39.3218 73.8746C39.7251 74.0416 40.1573 74.1275 40.5937 74.1274H62.4796C62.1398 74.1277 61.8032 74.0608 61.4892 73.9308C61.1752 73.8007 60.89 73.61 60.6498 73.3695C60.4097 73.129 60.2194 72.8434 60.0898 72.5292C59.9603 72.215 59.894 71.8783 59.8948 71.5385V71.5385Z" fill="#C5C3C6"/>
<path d="M37.2699 60.4534H28.0269V68.6423H37.2699V60.4534Z" fill="#C5C3C6"/>
<path d="M37.27 70.8017V68.6416H21.7343C21.0147 68.653 20.3284 68.9468 19.8235 69.4597C19.3186 69.9726 19.0356 70.6634 19.0356 71.3832C19.0356 72.1029 19.3186 72.7937 19.8235 73.3066C20.3284 73.8195 21.0147 74.1133 21.7343 74.1247H40.5936C40.1572 74.1248 39.725 74.0389 39.3218 73.8719C38.9185 73.705 38.5521 73.4602 38.2435 73.1516C37.9348 72.8431 37.69 72.4767 37.523 72.0735C37.3559 71.6703 37.27 71.2381 37.27 70.8017V70.8017Z" fill="#C5C3C6"/>
<path d="M59.8948 36.2777C59.8948 35.9382 59.9617 35.6021 60.0917 35.2885C60.2217 34.9749 60.4123 34.69 60.6525 34.4501C60.8927 34.2102 61.1778 34.0201 61.4915 33.8905C61.8053 33.7609 62.1415 33.6944 62.481 33.6948H70.0758V27.089H37.27V67.0797H59.8948V36.2777Z" fill="#C5C3C6"/>
<path d="M52.1089 52.8505V43.3423C52.1089 42.6317 51.5328 42.0557 50.8222 42.0557H41.0857C40.3751 42.0557 39.7991 42.6317 39.7991 43.3423V52.8505C39.7991 53.5611 40.3751 54.1371 41.0857 54.1371H50.8222C51.5328 54.1371 52.1089 53.5611 52.1089 52.8505Z" fill="#828282"/>
<path d="M59.8947 36.2776C59.8947 35.9382 59.9616 35.602 60.0916 35.2884C60.2216 34.9749 60.4122 34.69 60.6524 34.4501C60.8926 34.2102 61.1777 34.02 61.4915 33.8904C61.8052 33.7608 62.1415 33.6944 62.4809 33.6948H67.5466V31.7638C67.5466 31.4226 67.4111 31.0953 67.1698 30.854C66.9285 30.6127 66.6012 30.4772 66.26 30.4772H41.085C40.9161 30.4772 40.7488 30.5105 40.5928 30.5751C40.4367 30.6398 40.2949 30.7346 40.1755 30.8541C40.0561 30.9736 39.9614 31.1154 39.8968 31.2715C39.8322 31.4276 39.799 31.5949 39.7991 31.7638V38.6966C39.7991 39.0378 39.9345 39.3649 40.1757 39.6062C40.4168 39.8475 40.7439 39.9831 41.085 39.9833H59.8947V36.2776Z" fill="#B1B1B1"/>
<path d="M59.8948 42.0557H55.8799C55.5388 42.0557 55.2116 42.1911 54.9704 42.4323C54.7291 42.6734 54.5934 43.0005 54.5933 43.3416V52.8505C54.5933 53.1917 54.7288 53.519 54.9701 53.7603C55.2114 54.0016 55.5387 54.1371 55.8799 54.1371H59.8948V42.0557Z" fill="#828282"/>
<path d="M57.7062 24.1391H49.6396C49.372 24.1391 49.155 24.3561 49.155 24.6237V24.7264C49.155 24.994 49.372 25.211 49.6396 25.211H57.7062C57.9738 25.211 58.1908 24.994 58.1908 24.7264V24.6237C58.1908 24.3561 57.9738 24.1391 57.7062 24.1391Z" fill="#828282"/>
<path d="M60.3345 25.2633C60.6592 25.2633 60.9224 25.0001 60.9224 24.6754C60.9224 24.3507 60.6592 24.0874 60.3345 24.0874C60.0098 24.0874 59.7466 24.3507 59.7466 24.6754C59.7466 25.0001 60.0098 25.2633 60.3345 25.2633Z" fill="#828282"/>
<path d="M56.4011 69.0005H50.9446C50.2944 69.0005 49.7673 69.5276 49.7673 70.1777V70.4272C49.7673 71.0773 50.2944 71.6044 50.9446 71.6044H56.4011C57.0512 71.6044 57.5783 71.0773 57.5783 70.4272V70.1777C57.5783 69.5276 57.0512 69.0005 56.4011 69.0005Z" fill="#828282"/>
<path d="M79.832 33.6914H62.481C61.0527 33.6914 59.8948 34.8493 59.8948 36.2776V71.5385C59.8948 72.9668 61.0527 74.1247 62.481 74.1247H79.832C81.2604 74.1247 82.4183 72.9668 82.4183 71.5385V36.2776C82.4183 34.8493 81.2604 33.6914 79.832 33.6914Z" fill="#C5C3C6"/>
<path d="M82.4175 68.643V37.5249H59.894V68.643H82.4175Z" fill="#C5C3C6"/>
<path d="M79.019 53.0109V42.2834C79.019 41.5326 78.4104 40.924 77.6597 40.924H64.6518C63.9011 40.924 63.2924 41.5326 63.2924 42.2834V53.0109C63.2924 53.7616 63.9011 54.3702 64.6518 54.3702H77.6597C78.4104 54.3702 79.019 53.7616 79.019 53.0109Z" fill="#828282"/>
<path d="M74.2953 35.2303H68.0183C67.81 35.2303 67.6411 35.3991 67.6411 35.6075V35.687C67.6411 35.8953 67.81 36.0642 68.0183 36.0642H74.2953C74.5036 36.0642 74.6725 35.8953 74.6725 35.687V35.6075C74.6725 35.3991 74.5036 35.2303 74.2953 35.2303Z" fill="#828282"/>
<path d="M76.3404 35.1895C76.2497 35.1893 76.1611 35.2161 76.0856 35.2664C76.0102 35.3167 75.9514 35.3882 75.9166 35.4719C75.8818 35.5557 75.8727 35.6478 75.8904 35.7368C75.908 35.8257 75.9517 35.9074 76.0158 35.9715C76.0799 36.0356 76.1616 36.0792 76.2505 36.0969C76.3394 36.1146 76.4316 36.1054 76.5153 36.0707C76.5991 36.0359 76.6706 35.9771 76.7209 35.9016C76.7712 35.8262 76.7979 35.7375 76.7978 35.6469C76.7976 35.5256 76.7494 35.4094 76.6636 35.3236C76.5779 35.2379 76.4616 35.1896 76.3404 35.1895V35.1895Z" fill="#828282"/>
<path d="M69.033 70.1376H73.279C73.522 70.1376 73.7551 70.2342 73.9269 70.406C74.0987 70.5778 74.1953 70.8109 74.1953 71.0539V71.2482C74.1953 71.4911 74.0988 71.7239 73.9271 71.8956C73.7554 72.0673 73.5225 72.1638 73.2797 72.1638H69.0337C68.7909 72.1638 68.558 72.0673 68.3863 71.8956C68.2146 71.7239 68.1182 71.4911 68.1182 71.2482V71.0539C68.1182 70.8109 68.2147 70.5778 68.3865 70.406C68.5583 70.2342 68.7914 70.1376 69.0344 70.1376H69.033Z" fill="#828282"/>
<path d="M41.5227 10.8356H46.7903C46.9706 10.8356 47.1434 10.764 47.2709 10.6365C47.3984 10.509 47.47 10.3361 47.47 10.1559C47.47 9.97562 47.3984 9.80274 47.2709 9.67527C47.1434 9.54781 46.9706 9.4762 46.7903 9.4762H41.5227C41.3424 9.4762 41.1696 9.54781 41.0421 9.67527C40.9146 9.80274 40.843 9.97562 40.843 10.1559C40.843 10.3361 40.9146 10.509 41.0421 10.6365C41.1696 10.764 41.3424 10.8356 41.5227 10.8356V10.8356Z" fill="#828282"/>
<path d="M22.775 44.2816H10.4468C10.2665 44.2816 10.0936 44.3533 9.96617 44.4807C9.8387 44.6082 9.76709 44.7811 9.76709 44.9613C9.76709 45.1416 9.8387 45.3145 9.96617 45.4419C10.0936 45.5694 10.2665 45.641 10.4468 45.641H22.775C22.9552 45.641 23.1281 45.5694 23.2556 45.4419C23.383 45.3145 23.4546 45.1416 23.4546 44.9613C23.4546 44.7811 23.383 44.6082 23.2556 44.4807C23.1281 44.3533 22.9552 44.2816 22.775 44.2816Z" fill="#828282"/>
<path d="M22.775 47.6801H10.4468C10.2665 47.6801 10.0936 47.7517 9.96617 47.8792C9.8387 48.0066 9.76709 48.1795 9.76709 48.3598C9.76709 48.54 9.8387 48.7129 9.96617 48.8404C10.0936 48.9679 10.2665 49.0395 10.4468 49.0395H22.775C22.9552 49.0395 23.1281 48.9679 23.2556 48.8404C23.383 48.7129 23.4546 48.54 23.4546 48.3598C23.4546 48.1795 23.383 48.0066 23.2556 47.8792C23.1281 47.7517 22.9552 47.6801 22.775 47.6801Z" fill="#828282"/>
<path d="M51.4653 56.1245H40.4414C40.2611 56.1245 40.0883 56.1961 39.9608 56.3236C39.8333 56.4511 39.7617 56.6239 39.7617 56.8042C39.7617 56.9845 39.8333 57.1573 39.9608 57.2848C40.0883 57.4123 40.2611 57.4839 40.4414 57.4839H51.4653C51.6455 57.4839 51.8184 57.4123 51.9459 57.2848C52.0733 57.1573 52.1449 56.9845 52.1449 56.8042C52.1449 56.6239 52.0733 56.4511 51.9459 56.3236C51.8184 56.1961 51.6455 56.1245 51.4653 56.1245Z" fill="#828282"/>
<path d="M51.4653 59.3408H40.4414C40.2611 59.3408 40.0883 59.4124 39.9608 59.5399C39.8333 59.6673 39.7617 59.8402 39.7617 60.0205C39.7617 60.2007 39.8333 60.3736 39.9608 60.5011C40.0883 60.6286 40.2611 60.7002 40.4414 60.7002H51.4653C51.6455 60.7002 51.8184 60.6286 51.9459 60.5011C52.0733 60.3736 52.1449 60.2007 52.1449 60.0205C52.1449 59.8402 52.0733 59.6673 51.9459 59.5399C51.8184 59.4124 51.6455 59.3408 51.4653 59.3408Z" fill="#828282"/>
<path d="M51.4653 62.5571H40.4414C40.2611 62.5571 40.0883 62.6287 39.9608 62.7561C39.8333 62.8836 39.7617 63.0565 39.7617 63.2368C39.7617 63.417 39.8333 63.5899 39.9608 63.7174C40.0883 63.8448 40.2611 63.9164 40.4414 63.9164H51.4653C51.6455 63.9164 51.8184 63.8448 51.9459 63.7174C52.0733 63.5899 52.1449 63.417 52.1449 63.2368C52.1449 63.0565 52.0733 62.8836 51.9459 62.7561C51.8184 62.6287 51.6455 62.5571 51.4653 62.5571Z" fill="#828282"/>
<path d="M63.9729 58.5476H78.3401C78.5204 58.5476 78.6933 58.476 78.8207 58.3485C78.9482 58.2211 79.0198 58.0482 79.0198 57.8679C79.0198 57.6877 78.9482 57.5148 78.8207 57.3873C78.6933 57.2598 78.5204 57.1882 78.3401 57.1882H63.9729C63.7926 57.1882 63.6198 57.2598 63.4923 57.3873C63.3648 57.5148 63.2932 57.6877 63.2932 57.8679C63.2932 58.0482 63.3648 58.2211 63.4923 58.3485C63.6198 58.476 63.7926 58.5476 63.9729 58.5476Z" fill="#828282"/>
<path d="M78.3401 60.5867H63.9729C63.7926 60.5867 63.6198 60.6583 63.4923 60.7857C63.3648 60.9132 63.2932 61.0861 63.2932 61.2664C63.2932 61.4466 63.3648 61.6195 63.4923 61.747C63.6198 61.8744 63.7926 61.946 63.9729 61.946H78.3401C78.5204 61.946 78.6933 61.8744 78.8207 61.747C78.9482 61.6195 79.0198 61.4466 79.0198 61.2664C79.0198 61.0861 78.9482 60.9132 78.8207 60.7857C78.6933 60.6583 78.5204 60.5867 78.3401 60.5867Z" fill="#828282"/>
<path d="M78.3401 63.9851H63.9729C63.7926 63.9851 63.6198 64.0567 63.4923 64.1842C63.3648 64.3116 63.2932 64.4845 63.2932 64.6648C63.2932 64.8451 63.3648 65.0179 63.4923 65.1454C63.6198 65.2729 63.7926 65.3445 63.9729 65.3445H78.3401C78.5204 65.3445 78.6933 65.2729 78.8207 65.1454C78.9482 65.0179 79.0198 64.8451 79.0198 64.6648C79.0198 64.4845 78.9482 64.3116 78.8207 64.1842C78.6933 64.0567 78.5204 63.9851 78.3401 63.9851Z" fill="#828282"/>
<path d="M79.832 33.0117H70.7555V25.4883C70.7533 24.5976 70.4546 23.733 69.9065 23.0309C69.3585 22.3288 68.5923 21.8291 67.7288 21.6107V14.9001C67.7274 13.4622 67.1556 12.0835 66.1389 11.0667C65.1221 10.0498 63.7436 9.47782 62.3056 9.4762H49.5091C49.3289 9.4762 49.156 9.54781 49.0285 9.67527C48.9011 9.80274 48.8295 9.97562 48.8295 10.1559C48.8295 10.3361 48.9011 10.509 49.0285 10.6365C49.156 10.764 49.3289 10.8356 49.5091 10.8356H62.3049C63.3825 10.8368 64.4155 11.2655 65.1774 12.0275C65.9392 12.7895 66.3677 13.8226 66.3688 14.9001V21.4822H63.6827V17.1424C63.6816 16.2414 63.3232 15.3776 62.6861 14.7405C62.049 14.1034 61.1852 13.745 60.2842 13.744H8.62797C7.72698 13.745 6.8632 14.1034 6.2261 14.7405C5.589 15.3776 5.23061 16.2414 5.22953 17.1424V49.6953C5.23061 50.5963 5.589 51.4601 6.2261 52.0972C6.8632 52.7343 7.72698 53.0927 8.62797 53.0938H36.5903V59.7731H6.60658C5.52923 59.772 4.4963 59.3436 3.73443 58.5818C2.97256 57.8201 2.54398 56.7872 2.54272 55.7099V14.9001C2.5438 13.8226 2.97228 12.7895 3.73415 12.0275C4.49602 11.2655 5.52905 10.8368 6.60658 10.8356H38.8611C39.0414 10.8356 39.2143 10.764 39.3418 10.6365C39.4692 10.509 39.5408 10.3361 39.5408 10.1559C39.5408 9.97562 39.4692 9.80274 39.3418 9.67527C39.2143 9.54781 39.0414 9.4762 38.8611 9.4762H6.60658C5.16868 9.478 3.7902 10.05 2.77352 11.0668C1.75684 12.0837 1.18497 13.4622 1.18335 14.9001V55.7099C1.18515 57.1476 1.75712 58.5259 2.7738 59.5425C3.79049 60.559 5.16886 61.1308 6.60658 61.1324H27.3472V67.9619H21.7344C20.8269 67.9619 19.9566 68.3224 19.315 68.9641C18.6733 69.6058 18.3128 70.476 18.3128 71.3835C18.3128 72.2909 18.6733 73.1612 19.315 73.8029C19.9566 74.4445 20.8269 74.805 21.7344 74.805H79.832C80.6979 74.804 81.5279 74.4595 82.1402 73.8473C82.7524 73.235 83.0969 72.405 83.0979 71.5391V36.2776C83.0969 35.4118 82.7524 34.5817 82.1402 33.9695C81.5279 33.3572 80.6979 33.0128 79.832 33.0117V33.0117ZM37.9497 70.8024V67.7594H59.2151V71.5391C59.2166 72.2249 59.4358 72.8924 59.8411 73.4457H40.5937C39.893 73.4439 39.2215 73.1647 38.7261 72.6693C38.2306 72.1738 37.9515 71.5024 37.9497 70.8017V70.8024ZM60.5745 38.2045H81.7386V67.9633H60.5745V38.2045ZM81.7386 36.2776V36.8452H60.5745V36.2776C60.5759 35.7727 60.7773 35.289 61.1347 34.9323C61.492 34.5756 61.9761 34.375 62.481 34.3745H79.832C80.3369 34.375 80.821 34.5756 81.1784 34.9323C81.5357 35.289 81.7371 35.7727 81.7386 36.2776V36.2776ZM62.481 33.0151C61.6151 33.016 60.7849 33.3604 60.1726 33.9727C59.5603 34.585 59.216 35.4151 59.2151 36.281V56.1279H55.2369C55.0566 56.1279 54.8837 56.1995 54.7563 56.327C54.6288 56.4544 54.5572 56.6273 54.5572 56.8076C54.5572 56.9879 54.6288 57.1607 54.7563 57.2882C54.8837 57.4157 55.0566 57.4873 55.2369 57.4873H59.2151V59.3442H55.2369C55.0566 59.3442 54.8837 59.4158 54.7563 59.5433C54.6288 59.6707 54.5572 59.8436 54.5572 60.0239C54.5572 60.2041 54.6288 60.377 54.7563 60.5045C54.8837 60.6319 55.0566 60.7036 55.2369 60.7036H59.2151V62.5605H55.2369C55.0566 62.5605 54.8837 62.6321 54.7563 62.7595C54.6288 62.887 54.5572 63.0599 54.5572 63.2402C54.5572 63.4204 54.6288 63.5933 54.7563 63.7208C54.8837 63.8482 55.0566 63.9198 55.2369 63.9198H59.2151V66.4034H37.9497V27.7686H69.3961V33.0117L62.481 33.0151ZM69.3961 25.4883V26.412H37.9497V25.4883C37.9515 24.7876 38.2306 24.1161 38.7261 23.6207C39.2215 23.1252 39.893 22.8461 40.5937 22.8443H66.7515C67.4522 22.8459 68.1239 23.125 68.6195 23.6204C69.1151 24.1159 69.3943 24.7875 69.3961 25.4883V25.4883ZM8.63205 51.7371C8.09125 51.7371 7.57261 51.5223 7.19021 51.1399C6.80781 50.7575 6.59298 50.2389 6.59298 49.6981V17.1424C6.59298 16.6016 6.80781 16.083 7.19021 15.7006C7.57261 15.3182 8.09125 15.1033 8.63205 15.1033H60.2883C60.8291 15.1033 61.3477 15.3182 61.7301 15.7006C62.1125 16.083 62.3274 16.6016 62.3274 17.1424V21.4822H40.5937C39.5325 21.484 38.5152 21.9063 37.7649 22.6567C37.0145 23.4071 36.5921 24.4243 36.5903 25.4856V44.2816H28.292C28.1117 44.2816 27.9389 44.3532 27.8114 44.4807C27.6839 44.6082 27.6123 44.7811 27.6123 44.9613C27.6123 45.1416 27.6839 45.3145 27.8114 45.4419C27.9389 45.5694 28.1117 45.641 28.292 45.641H36.5903V47.6801H28.292C28.1117 47.6801 27.9389 47.7517 27.8114 47.8791C27.6839 48.0066 27.6123 48.1795 27.6123 48.3598C27.6123 48.54 27.6839 48.7129 27.8114 48.8404C27.9389 48.9678 28.1117 49.0394 28.292 49.0394H36.5903V51.7344L8.63205 51.7371ZM28.7066 61.1324H36.591V67.9619H28.7066V61.1324ZM19.6729 71.3828C19.6736 70.8363 19.891 70.3124 20.2775 69.9259C20.6639 69.5395 21.1879 69.322 21.7344 69.3213H36.5903V70.8017C36.5907 71.7763 36.9484 72.7169 37.5956 73.4457H21.7344C21.1877 73.4448 20.6636 73.2271 20.2772 72.8404C19.8908 72.4537 19.6734 71.9295 19.6729 71.3828V71.3828ZM79.832 73.4457H62.481C61.9755 73.4451 61.4909 73.2441 61.1335 72.8867C60.776 72.5292 60.575 72.0446 60.5745 71.5391V69.3227H81.7386V71.5391C81.738 72.0446 81.537 72.5292 81.1796 72.8867C80.8221 73.2441 80.3375 73.4451 79.832 73.4457V73.4457Z" fill="#828282"/>
</svg>
